<?xml version="1.0" encoding="UTF-8" standalone="no"?>
<!DOCTYPE svg PUBLIC "-//W3C//DTD SVG 1.1//EN" "http://www.w3.org/Graphics/SVG/1.1/DTD/svg11.dtd">
<svg version="1.1" xmlns="http://www.w3.org/2000/svg" xmlns:xlink="http://www.w3.org/1999/xlink" preserveAspectRatio="xMidYMid meet" viewBox="0 0 560 560" width="560" height="560"><defs><path d="M558.63 100L556.58 99.96L554.54 99.84L552.53 99.64L550.55 99.36L548.59 99.01L546.65 98.58L544.75 98.08L542.87 97.51L541.03 96.87L539.23 96.16L537.45 95.39L535.72 94.55L534.02 93.65L532.37 92.69L530.75 91.66L529.18 90.58L527.66 89.44L526.18 88.25L524.75 87L523.37 85.7L522.04 84.35L520.77 82.95L519.55 81.51L518.73 80.46L517.91 81.51L516.69 82.95L515.42 84.35L514.09 85.7L512.71 87L511.28 88.25L509.8 89.44L508.28 90.58L506.71 91.66L505.09 92.69L503.44 93.65L501.74 94.55L500.01 95.39L498.23 96.16L496.43 96.87L494.59 97.51L492.71 98.08L490.81 98.58L488.87 99.01L486.91 99.36L484.93 99.64L482.92 99.84L480.88 99.96L478.83 100L476.77 99.96L474.74 99.84L472.73 99.64L470.74 99.36L468.78 99.01L466.85 98.58L464.94 98.08L463.07 97.51L461.23 96.87L459.42 96.16L457.65 95.39L455.91 94.55L454.22 93.65L452.56 92.69L450.95 91.66L449.38 90.58L447.85 89.44L446.38 88.25L444.95 87L443.57 85.7L442.24 84.35L440.96 82.95L439.74 81.51L438.93 80.46L438.11 81.51L436.89 82.95L435.61 84.35L434.29 85.7L432.91 87L431.48 88.25L430 89.44L428.47 90.58L426.9 91.66L425.29 92.69L423.63 93.65L421.94 94.55L420.2 95.39L418.43 96.16L416.62 96.87L414.78 97.51L412.91 98.08L411 98.58L409.07 99.01L407.11 99.36L405.12 99.64L403.11 99.84L401.08 99.96L399.02 100L396.97 99.96L394.93 99.84L392.92 99.64L390.94 99.36L388.98 99.01L387.04 98.58L385.14 98.08L383.26 97.51L381.42 96.87L379.62 96.16L377.84 95.39L376.11 94.55L374.41 93.65L372.76 92.69L371.14 91.66L369.57 90.58L368.05 89.44L366.57 88.25L365.14 87L363.76 85.7L362.43 84.35L361.16 82.95L359.94 81.51L359.12 80.46L358.3 81.51L357.08 82.95L355.81 84.35L354.48 85.7L353.1 87L351.67 88.25L350.19 89.44L348.67 90.58L347.1 91.66L345.48 92.69L343.83 93.65L342.13 94.55L340.4 95.39L338.63 96.16L336.82 96.87L334.98 97.51L333.1 98.08L331.2 98.58L329.27 99.01L327.3 99.36L325.32 99.64L323.31 99.84L321.27 99.96L319.22 100L317.16 99.96L315.13 99.84L313.12 99.64L311.13 99.36L309.17 99.01L307.24 98.58L305.33 98.08L303.46 97.51L301.62 96.87L299.81 96.16L298.04 95.39L296.3 94.55L294.61 93.65L292.95 92.69L291.34 91.66L289.77 90.58L288.24 89.44L286.77 88.25L285.34 87L283.96 85.7L282.63 84.35L281.35 82.95L280.13 81.51L278.97 80.02L278.4 79.22L277.28 80.54L276 81.94L274.68 83.29L273.3 84.59L271.87 85.83L270.39 87.03L268.86 88.17L267.29 89.25L265.68 90.27L264.02 91.23L262.33 92.14L260.59 92.97L258.82 93.75L257.01 94.46L255.17 95.1L253.3 95.67L251.39 96.17L249.46 96.59L247.5 96.95L245.51 97.22L243.5 97.42L241.47 97.54L239.41 97.59L237.36 97.54L235.33 97.42L233.31 97.22L231.33 96.95L229.37 96.59L227.43 96.17L225.53 95.67L223.66 95.1L221.81 94.46L220.01 93.75L218.23 92.97L216.5 92.14L214.8 91.23L213.15 90.27L211.53 89.25L209.96 88.17L208.44 87.03L206.96 85.83L205.53 84.59L204.15 83.29L202.82 81.94L201.55 80.54L200.33 79.09L199.51 78.05L198.69 79.09L197.47 80.54L196.2 81.94L194.87 83.29L193.49 84.59L192.06 85.83L190.58 87.03L189.06 88.17L187.49 89.25L185.87 90.27L184.22 91.23L182.52 92.14L180.79 92.97L179.02 93.75L177.21 94.46L175.37 95.1L173.49 95.67L171.59 96.17L169.66 96.59L167.7 96.95L165.71 97.22L163.7 97.42L161.66 97.54L159.61 97.59L157.55 97.54L155.52 97.42L153.51 97.22L151.52 96.95L149.56 96.59L147.63 96.17L145.72 95.67L143.85 95.1L142.01 94.46L140.2 93.75L138.43 92.97L136.7 92.14L135 91.23L133.34 90.27L131.73 89.25L130.16 88.17L128.63 87.03L127.16 85.83L125.73 84.59L124.35 83.29L123.02 81.94L121.74 80.54L120.52 79.09L119.71 78.05L118.89 79.09L117.67 80.54L116.39 81.94L115.07 83.29L113.69 84.59L112.26 85.83L110.78 87.03L109.25 88.17L107.68 89.25L106.07 90.27L104.41 91.23L102.72 92.14L100.98 92.97L99.21 93.75L97.4 94.46L95.56 95.1L93.69 95.67L91.78 96.17L89.85 96.59L87.89 96.95L85.9 97.22L83.89 97.42L81.86 97.54L79.8 97.59L77.75 97.54L75.72 97.42L73.71 97.22L71.72 96.95L69.76 96.59L67.82 96.17L65.92 95.67L64.05 95.1L62.21 94.46L60.4 93.75L58.63 92.97L56.89 92.14L55.19 91.23L53.54 90.27L51.93 89.25L50.36 88.17L48.83 87.03L47.35 85.83L45.92 84.59L44.54 83.29L43.21 81.94L41.94 80.54L40.72 79.09L39.9 78.05L39.09 79.09L37.87 80.54L36.59 81.94L35.26 83.29L33.88 84.59L32.45 85.83L30.97 87.03L29.45 88.17L27.88 89.25L26.27 90.27L24.61 91.23L22.91 92.14L21.18 92.97L19.41 93.75L17.6 94.46L15.76 95.1L13.88 95.67L11.98 96.17L10.05 96.59L8.09 96.95L6.1 97.22L4.09 97.42L2.05 97.54L0 97.59L0 0L558.63 0L558.63 2.41L560 2.44L560 99.97L558.63 100Z" id="a13dH0NENK"></path></defs><g><g><g><g><filter id="shadow1142298" x="-19" y="-19" width="598" height="141" filterUnits="userSpaceOnUse" primitiveUnits="userSpaceOnUse"><feFlood></feFlood><feComposite in2="SourceAlpha" operator="in"></feComposite><feGaussianBlur stdDeviation="2.24"></feGaussianBlur><feOffset dx="0" dy="3" result="afterOffset"></feOffset><feFlood flood-color="#000000" flood-opacity="0.36"></feFlood><feComposite in2="afterOffset" operator="in"></feComposite><feMorphology operator="dilate" radius="1"></feMorphology><feComposite in2="SourceAlpha" operator="out"></feComposite></filter><path d="M558.63 100L556.58 99.96L554.54 99.84L552.53 99.64L550.55 99.36L548.59 99.01L546.65 98.58L544.75 98.08L542.87 97.51L541.03 96.87L539.23 96.16L537.45 95.39L535.72 94.55L534.02 93.65L532.37 92.69L530.75 91.66L529.18 90.58L527.66 89.44L526.18 88.25L524.75 87L523.37 85.7L522.04 84.35L520.77 82.95L519.55 81.51L518.73 80.46L517.91 81.51L516.69 82.95L515.42 84.35L514.09 85.7L512.71 87L511.28 88.25L509.8 89.44L508.28 90.58L506.71 91.66L505.09 92.69L503.44 93.65L501.74 94.55L500.01 95.39L498.23 96.16L496.43 96.87L494.59 97.51L492.71 98.08L490.81 98.58L488.87 99.01L486.91 99.36L484.93 99.64L482.92 99.84L480.88 99.96L478.83 100L476.77 99.96L474.74 99.84L472.73 99.64L470.74 99.36L468.78 99.01L466.85 98.58L464.94 98.08L463.07 97.51L461.23 96.87L459.42 96.16L457.65 95.39L455.91 94.55L454.22 93.65L452.56 92.69L450.95 91.66L449.38 90.58L447.85 89.44L446.38 88.25L444.95 87L443.57 85.7L442.24 84.35L440.96 82.95L439.74 81.51L438.93 80.46L438.11 81.51L436.89 82.95L435.61 84.35L434.29 85.7L432.91 87L431.48 88.25L430 89.44L428.47 90.58L426.9 91.66L425.29 92.69L423.63 93.65L421.94 94.55L420.2 95.39L418.43 96.16L416.62 96.87L414.78 97.51L412.91 98.08L411 98.58L409.07 99.01L407.11 99.36L405.12 99.64L403.11 99.84L401.08 99.96L399.02 100L396.97 99.96L394.93 99.84L392.92 99.64L390.94 99.36L388.98 99.01L387.04 98.58L385.14 98.08L383.26 97.51L381.42 96.87L379.62 96.16L377.84 95.39L376.11 94.55L374.41 93.65L372.76 92.69L371.14 91.66L369.57 90.58L368.05 89.44L366.57 88.25L365.14 87L363.76 85.7L362.43 84.35L361.16 82.95L359.94 81.51L359.12 80.46L358.3 81.51L357.08 82.95L355.81 84.35L354.48 85.7L353.1 87L351.67 88.25L350.19 89.44L348.67 90.58L347.1 91.66L345.48 92.69L343.83 93.65L342.13 94.55L340.4 95.39L338.63 96.16L336.82 96.87L334.98 97.51L333.1 98.08L331.2 98.58L329.27 99.01L327.3 99.36L325.32 99.64L323.31 99.84L321.27 99.96L319.22 100L317.16 99.96L315.13 99.84L313.12 99.64L311.13 99.36L309.17 99.01L307.24 98.58L305.33 98.08L303.46 97.51L301.62 96.87L299.81 96.16L298.04 95.39L296.3 94.55L294.61 93.65L292.95 92.69L291.34 91.66L289.77 90.58L288.24 89.44L286.77 88.25L285.34 87L283.96 85.7L282.63 84.35L281.35 82.95L280.13 81.51L278.97 80.02L278.4 79.22L277.28 80.54L276 81.94L274.68 83.29L273.3 84.59L271.87 85.83L270.39 87.03L268.86 88.17L267.29 89.25L265.68 90.27L264.02 91.23L262.33 92.14L260.59 92.97L258.82 93.75L257.01 94.46L255.17 95.1L253.3 95.67L251.39 96.17L249.46 96.59L247.5 96.95L245.51 97.22L243.5 97.42L241.47 97.54L239.41 97.59L237.36 97.54L235.33 97.42L233.31 97.22L231.33 96.95L229.37 96.59L227.43 96.17L225.53 95.67L223.66 95.1L221.81 94.46L220.01 93.75L218.23 92.97L216.5 92.14L214.8 91.23L213.15 90.27L211.53 89.25L209.96 88.17L208.44 87.03L206.96 85.83L205.53 84.59L204.15 83.29L202.82 81.94L201.55 80.54L200.33 79.09L199.51 78.05L198.69 79.09L197.47 80.54L196.2 81.94L194.87 83.29L193.49 84.59L192.06 85.83L190.58 87.03L189.06 88.17L187.49 89.25L185.87 90.27L184.22 91.23L182.52 92.14L180.79 92.97L179.02 93.75L177.21 94.46L175.37 95.1L173.49 95.67L171.59 96.17L169.66 96.59L167.7 96.95L165.71 97.22L163.7 97.42L161.66 97.54L159.61 97.59L157.55 97.54L155.52 97.42L153.51 97.22L151.52 96.95L149.56 96.59L147.63 96.17L145.72 95.67L143.85 95.1L142.01 94.46L140.2 93.75L138.43 92.97L136.7 92.14L135 91.23L133.34 90.27L131.73 89.25L130.16 88.17L128.63 87.03L127.16 85.83L125.73 84.59L124.35 83.29L123.02 81.94L121.74 80.54L120.52 79.09L119.71 78.05L118.89 79.09L117.67 80.54L116.39 81.94L115.07 83.29L113.69 84.59L112.26 85.83L110.78 87.03L109.25 88.17L107.68 89.25L106.07 90.27L104.41 91.23L102.72 92.14L100.98 92.97L99.21 93.75L97.4 94.46L95.56 95.1L93.69 95.67L91.78 96.17L89.85 96.59L87.89 96.95L85.9 97.22L83.89 97.42L81.86 97.54L79.8 97.59L77.75 97.54L75.72 97.42L73.71 97.22L71.72 96.95L69.76 96.59L67.82 96.17L65.92 95.67L64.05 95.1L62.21 94.46L60.4 93.75L58.63 92.97L56.89 92.14L55.19 91.23L53.54 90.27L51.93 89.25L50.36 88.17L48.83 87.03L47.35 85.83L45.92 84.59L44.54 83.29L43.21 81.94L41.94 80.54L40.72 79.09L39.9 78.05L39.09 79.09L37.87 80.54L36.59 81.94L35.26 83.29L33.88 84.59L32.45 85.83L30.97 87.03L29.45 88.17L27.88 89.25L26.27 90.27L24.61 91.23L22.91 92.14L21.18 92.97L19.41 93.75L17.6 94.46L15.76 95.1L13.88 95.67L11.98 96.17L10.05 96.59L8.09 96.95L6.1 97.22L4.09 97.42L2.05 97.54L0 97.59L0 0L558.63 0L558.63 2.41L560 2.44L560 99.97L558.63 100Z" id="aEyfAQl4E" fill="white" fill-opacity="1" filter="url(#shadow1142298)"></path></g><use xlink:href="#a13dH0NENK" opacity="1" fill="#ffffff" fill-opacity="1"></use></g></g></g></svg>