<?xml version="1.0" encoding="UTF-8" standalone="no"?>
<!DOCTYPE svg PUBLIC "-//W3C//DTD SVG 1.1//EN" "http://www.w3.org/Graphics/SVG/1.1/DTD/svg11.dtd">
<svg version="1.1" xmlns="http://www.w3.org/2000/svg" xmlns:xlink="http://www.w3.org/1999/xlink" preserveAspectRatio="xMidYMid meet" viewBox="0 0 640 640" width="640" height="640"><defs><path d="M407.11 2.85L409.11 3.13L411.07 3.49L413.01 3.93L414.92 4.44L416.8 5.03L418.64 5.68L420.45 6.41L422.23 7.2L423.97 8.06L425.67 8.98L427.33 9.97L428.95 11.02L430.52 12.13L432.05 13.29L433.53 14.52L434.97 15.79L436.35 17.13L437.68 18.51L438.96 19.94L440.18 21.42L441 22.5L441.82 21.42L443.04 19.94L444.32 18.51L445.65 17.13L447.03 15.79L448.47 14.52L449.95 13.29L451.48 12.13L453.05 11.02L454.67 9.97L456.33 8.98L458.03 8.06L459.77 7.2L461.55 6.41L463.36 5.68L465.2 5.03L467.08 4.44L468.99 3.93L470.93 3.49L472.89 3.13L474.89 2.85L476.9 2.64L478.94 2.52L481 2.47L483.06 2.52L485.1 2.64L487.11 2.85L489.11 3.13L491.07 3.49L493.01 3.93L494.92 4.44L496.8 5.03L498.64 5.68L500.45 6.41L502.23 7.2L503.97 8.06L505.67 8.98L507.33 9.97L508.95 11.02L510.52 12.13L512.05 13.29L513.53 14.52L514.97 15.79L516.35 17.13L517.68 18.51L518.96 19.94L520.18 21.42L521 22.5L521.82 21.42L523.04 19.94L524.32 18.51L525.65 17.13L527.03 15.79L528.47 14.52L529.95 13.29L531.48 12.13L533.05 11.02L534.67 9.97L536.33 8.98L538.03 8.06L539.77 7.2L541.55 6.41L543.36 5.68L545.2 5.03L547.08 4.44L548.99 3.93L550.93 3.49L552.89 3.13L554.89 2.85L556.9 2.64L558.94 2.52L561 2.47L562.37 2.5L562.37 102.45L561 102.47L558.94 102.43L556.9 102.31L554.89 102.1L552.89 101.82L550.93 101.46L548.99 101.02L547.08 100.51L545.2 99.92L543.36 99.27L541.55 98.54L539.77 97.75L538.03 96.89L536.33 95.97L534.67 94.98L533.05 93.93L531.48 92.82L529.95 91.66L528.47 90.43L527.03 89.15L525.65 87.82L524.32 86.44L523.04 85.01L521.82 83.52L521 82.45L520.18 83.52L518.96 85.01L517.68 86.44L516.35 87.82L514.97 89.15L513.53 90.43L512.05 91.66L510.52 92.82L508.95 93.93L507.33 94.98L505.67 95.97L503.97 96.89L502.23 97.75L500.45 98.54L498.64 99.27L496.8 99.92L494.92 100.51L493.01 101.02L491.07 101.46L489.11 101.82L487.11 102.1L485.1 102.31L483.06 102.43L481 102.47L478.94 102.43L476.9 102.31L474.89 102.1L472.89 101.82L470.93 101.46L468.99 101.02L467.08 100.51L465.2 99.92L463.36 99.27L461.55 98.54L459.77 97.75L458.03 96.89L456.33 95.97L454.67 94.98L453.05 93.93L451.48 92.82L449.95 91.66L448.47 90.43L447.03 89.15L445.65 87.82L444.32 86.44L443.04 85.01L441.82 83.52L441 82.45L440.18 83.52L438.96 85.01L437.68 86.44L436.35 87.82L434.97 89.15L433.53 90.43L432.05 91.66L430.52 92.82L428.95 93.93L427.33 94.98L425.67 95.97L423.97 96.89L422.23 97.75L420.45 98.54L418.64 99.27L416.8 99.92L414.92 100.51L413.01 101.02L411.07 101.46L409.11 101.82L407.11 102.1L405.1 102.31L403.06 102.43L401 102.47L398.94 102.43L396.9 102.31L394.89 102.1L392.89 101.82L390.93 101.46L388.99 101.02L387.08 100.51L385.2 99.92L383.36 99.27L381.55 98.54L379.77 97.75L378.03 96.89L376.33 95.97L374.67 94.98L373.05 93.93L371.48 92.82L369.95 91.66L368.47 90.43L367.03 89.15L365.65 87.82L364.32 86.44L363.04 85.01L361.82 83.52L361 82.45L360.18 83.52L358.96 85.01L357.68 86.44L356.35 87.82L354.97 89.15L353.53 90.43L352.05 91.66L350.52 92.82L348.95 93.93L347.33 94.98L345.67 95.97L343.97 96.89L342.23 97.75L340.45 98.54L338.64 99.27L336.8 99.92L334.92 100.51L333.01 101.02L331.07 101.46L329.11 101.82L327.11 102.1L325.1 102.31L323.06 102.43L321 102.47L318.94 102.43L316.9 102.31L314.89 102.1L312.89 101.82L310.93 101.46L308.99 101.02L307.08 100.51L305.2 99.92L303.36 99.27L301.55 98.54L299.77 97.75L298.03 96.89L296.33 95.97L294.67 94.98L293.05 93.93L291.48 92.82L289.95 91.66L288.47 90.43L287.03 89.15L285.65 87.82L284.32 86.44L283.04 85.01L281.82 83.52L280.65 82L280.08 81.18L278.96 82.53L277.68 83.97L276.35 85.35L274.97 86.68L273.53 87.96L272.05 89.18L270.52 90.35L268.95 91.46L267.33 92.5L265.67 93.49L263.97 94.42L262.23 95.28L260.45 96.07L258.64 96.79L256.8 97.45L254.92 98.03L253.01 98.55L251.07 98.98L249.11 99.35L247.11 99.63L245.1 99.83L243.06 99.96L241 100L238.94 99.96L236.9 99.83L234.89 99.63L232.89 99.35L230.93 98.98L228.99 98.55L227.08 98.03L225.2 97.45L223.36 96.79L221.55 96.07L219.77 95.28L218.03 94.42L216.33 93.49L214.67 92.5L213.05 91.46L211.48 90.35L209.95 89.18L208.47 87.96L207.03 86.68L205.65 85.35L204.32 83.97L203.04 82.53L201.82 81.05L201 79.98L200.18 81.05L198.96 82.53L197.68 83.97L196.35 85.35L194.97 86.68L193.53 87.96L192.05 89.18L190.52 90.35L188.95 91.46L187.33 92.5L185.67 93.49L183.97 94.42L182.23 95.28L180.45 96.07L178.64 96.79L176.8 97.45L174.92 98.03L173.01 98.55L171.07 98.98L169.11 99.35L167.11 99.63L165.1 99.83L163.06 99.96L161 100L158.94 99.96L156.9 99.83L154.89 99.63L152.89 99.35L150.93 98.98L148.99 98.55L147.08 98.03L145.2 97.45L143.36 96.79L141.55 96.07L139.77 95.28L138.03 94.42L136.33 93.49L134.67 92.5L133.05 91.46L131.48 90.35L129.95 89.18L128.47 87.96L127.03 86.68L125.65 85.35L124.32 83.97L123.04 82.53L121.82 81.05L121 79.98L120.18 81.05L118.96 82.53L117.68 83.97L116.35 85.35L114.97 86.68L113.53 87.96L112.05 89.18L110.52 90.35L108.95 91.46L107.33 92.5L105.67 93.49L103.97 94.42L102.23 95.28L100.45 96.07L98.64 96.79L96.8 97.45L94.92 98.03L93.01 98.55L91.07 98.98L89.11 99.35L87.11 99.63L85.1 99.83L83.06 99.96L81 100L78.94 99.96L76.9 99.83L74.89 99.63L72.89 99.35L70.93 98.98L68.99 98.55L67.08 98.03L65.2 97.45L63.36 96.79L61.55 96.07L59.77 95.28L58.03 94.42L56.33 93.49L54.67 92.5L53.05 91.46L51.48 90.35L49.95 89.18L48.47 87.96L47.03 86.68L45.65 85.35L44.32 83.97L43.04 82.53L41.82 81.05L41 79.98L40.18 81.05L38.96 82.53L37.68 83.97L36.35 85.35L34.97 86.68L33.53 87.96L32.05 89.18L30.52 90.35L28.95 91.46L27.33 92.5L25.67 93.49L23.97 94.42L22.23 95.28L20.45 96.07L18.64 96.79L16.8 97.45L14.92 98.03L13.01 98.55L11.07 98.98L9.11 99.35L7.11 99.63L5.1 99.83L3.06 99.96L1 100L1 0L3.06 0.04L5.1 0.17L7.11 0.37L9.11 0.65L11.07 1.02L13.01 1.45L14.92 1.97L16.8 2.55L18.64 3.21L20.45 3.93L22.23 4.72L23.97 5.58L25.67 6.51L27.33 7.5L28.95 8.54L30.52 9.65L32.05 10.82L33.53 12.04L34.97 13.32L36.35 14.65L37.68 16.03L38.96 17.47L40.18 18.95L41 20.02L41.82 18.95L43.04 17.47L44.32 16.03L45.65 14.65L47.03 13.32L48.47 12.04L49.95 10.82L51.48 9.65L53.05 8.54L54.67 7.5L56.33 6.51L58.03 5.58L59.77 4.72L61.55 3.93L63.36 3.21L65.2 2.55L67.08 1.97L68.99 1.45L70.93 1.02L72.89 0.65L74.89 0.37L76.9 0.17L78.94 0.04L81 0L83.06 0.04L85.1 0.17L87.11 0.37L89.11 0.65L91.07 1.02L93.01 1.45L94.92 1.97L96.8 2.55L98.64 3.21L100.45 3.93L102.23 4.72L103.97 5.58L105.67 6.51L107.33 7.5L108.95 8.54L110.52 9.65L112.05 10.82L113.53 12.04L114.97 13.32L116.35 14.65L117.68 16.03L118.96 17.47L120.18 18.95L121 20.02L121.82 18.95L123.04 17.47L124.32 16.03L125.65 14.65L127.03 13.32L128.47 12.04L129.95 10.82L131.48 9.65L133.05 8.54L134.67 7.5L136.33 6.51L138.03 5.58L139.77 4.72L141.55 3.93L143.36 3.21L145.2 2.55L147.08 1.97L148.99 1.45L150.93 1.02L152.89 0.65L154.89 0.37L156.9 0.17L158.94 0.04L161 0L163.06 0.04L165.1 0.17L167.11 0.37L169.11 0.65L171.07 1.02L173.01 1.45L174.92 1.97L176.8 2.55L178.64 3.21L180.45 3.93L182.23 4.72L183.97 5.58L185.67 6.51L187.33 7.5L188.95 8.54L190.52 9.65L192.05 10.82L193.53 12.04L194.97 13.32L196.35 14.65L197.68 16.03L198.96 17.47L200.18 18.95L201 20.02L201.82 18.95L203.04 17.47L204.32 16.03L205.65 14.65L207.03 13.32L208.47 12.04L209.95 10.82L211.48 9.65L213.05 8.54L214.67 7.5L216.33 6.51L218.03 5.58L219.77 4.72L221.55 3.93L223.36 3.21L225.2 2.55L227.08 1.97L228.99 1.45L230.93 1.02L232.89 0.65L234.89 0.37L236.9 0.17L238.94 0.04L241 0L243.06 0.04L245.1 0.17L247.11 0.37L249.11 0.65L251.07 1.02L253.01 1.45L254.92 1.97L256.8 2.55L258.64 3.21L260.45 3.93L262.23 4.72L263.97 5.58L265.67 6.51L267.33 7.5L268.95 8.54L270.52 9.65L272.05 10.82L273.53 12.04L274.97 13.32L276.35 14.65L277.68 16.03L278.96 17.47L280.18 18.95L281.35 20.48L281.92 21.3L283.04 19.94L284.32 18.51L285.65 17.13L287.03 15.79L288.47 14.52L289.95 13.29L291.48 12.13L293.05 11.02L294.67 9.97L296.33 8.98L298.03 8.06L299.77 7.2L301.55 6.41L303.36 5.68L305.2 5.03L307.08 4.44L308.99 3.93L310.93 3.49L312.89 3.13L314.89 2.85L316.9 2.64L318.94 2.52L321 2.47L323.06 2.52L325.1 2.64L327.11 2.85L329.11 3.13L331.07 3.49L333.01 3.93L334.92 4.44L336.8 5.03L338.64 5.68L340.45 6.41L342.23 7.2L343.97 8.06L345.67 8.98L347.33 9.97L348.95 11.02L350.52 12.13L352.05 13.29L353.53 14.52L354.97 15.79L356.35 17.13L357.68 18.51L358.96 19.94L360.18 21.42L361 22.5L361.82 21.42L363.04 19.94L364.32 18.51L365.65 17.13L367.03 15.79L368.47 14.52L369.95 13.29L371.48 12.13L373.05 11.02L374.67 9.97L376.33 8.98L378.03 8.06L379.77 7.2L381.55 6.41L383.36 5.68L385.2 5.03L387.08 4.44L388.99 3.93L390.93 3.49L392.89 3.13L394.89 2.85L396.9 2.64L398.94 2.52L401 2.47L403.06 2.52L405.1 2.64L407.11 2.85Z" id="a184GHKQGk"></path></defs><g><g><g><use xlink:href="#a184GHKQGk" opacity="1" fill="#ffffff" fill-opacity="1"></use></g></g></g></svg>