<?xml version="1.0" encoding="UTF-8" standalone="no"?>
<!DOCTYPE svg PUBLIC "-//W3C//DTD SVG 1.1//EN" "http://www.w3.org/Graphics/SVG/1.1/DTD/svg11.dtd">
<svg version="1.1" xmlns="http://www.w3.org/2000/svg" xmlns:xlink="http://www.w3.org/1999/xlink" preserveAspectRatio="xMidYMid meet" viewBox="0 0 400 400" width="400" height="400"><defs><path d="M202.3 232L248.3 186L156.3 186L202.3 232Z" id="h3FaTJCYa7"></path><path d="M122.3 241.97C136.5 255.17 149.84 261.84 162.3 261.97C174.75 262.1 188.09 248.76 202.3 221.97" id="a1ep4UyhWt"></path><path d="M282.3 241.97C268.09 255.17 254.75 261.84 242.3 261.97C229.84 262.1 216.5 248.77 202.3 221.97" id="e3BzGxX4w4"></path><path d="M162.3 146C162.3 157.04 153.33 166 142.3 166C131.26 166 122.3 157.04 122.3 146C122.3 134.96 131.26 126 142.3 126C153.33 126 162.3 134.96 162.3 146Z" id="aVRF9hWfR"></path><path d="M282.3 146C282.3 157.04 273.33 166 262.3 166C251.26 166 242.3 157.04 242.3 146C242.3 134.96 251.26 126 262.3 126C273.33 126 282.3 134.96 282.3 146Z" id="a3k0CfcHHc"></path><path d="M304.92 40.2L307.34 40.44L309.73 40.79L312.09 41.22L314.41 41.75L316.7 42.36L318.96 43.06L321.17 43.85L323.35 44.72L325.48 45.67L327.56 46.7L329.6 47.81L331.6 48.99L333.54 50.25L335.43 51.58L337.26 52.98L339.04 54.45L340.76 55.98L342.42 57.58L344.02 59.24L345.55 60.96L347.02 62.74L348.42 64.57L349.75 66.46L351.01 68.4L352.19 70.4L353.3 72.44L354.33 74.52L355.28 76.65L356.15 78.83L356.94 81.04L357.64 83.3L358.25 85.59L358.78 87.91L359.21 90.27L359.56 92.66L359.8 95.08L359.95 97.53L360 100L359.95 102.47L359.8 104.92L359.56 107.34L359.21 109.73L358.78 112.09L358.25 114.41L357.64 116.7L356.94 118.96L356.15 121.17L355.28 123.35L354.33 125.48L353.3 127.56L352.19 129.6L351.01 131.6L349.75 133.54L348.42 135.43L347.13 137.11L347.42 137.75L349.74 143.54L351.84 149.45L353.71 155.46L355.35 161.57L356.75 167.77L357.9 174.06L358.81 180.43L359.47 186.89L359.87 193.41L360 200L359.87 206.59L359.47 213.11L358.81 219.57L357.9 225.94L356.75 232.23L355.35 238.43L353.71 244.54L351.84 250.55L349.74 256.46L347.42 262.25L344.88 267.94L342.13 273.5L339.17 278.94L336.01 284.25L332.66 289.43L329.11 294.47L325.38 299.36L321.47 304.1L317.38 308.69L313.11 313.11L308.69 317.38L304.1 321.47L299.36 325.38L294.47 329.11L289.43 332.66L284.25 336.01L278.94 339.17L273.5 342.13L267.94 344.88L262.25 347.42L256.46 349.74L250.55 351.84L244.54 353.71L238.43 355.35L232.23 356.75L225.94 357.9L219.57 358.81L213.11 359.47L206.59 359.87L200 360L193.41 359.87L186.89 359.47L180.43 358.81L174.06 357.9L167.77 356.75L161.57 355.35L155.46 353.71L149.45 351.84L143.54 349.74L137.75 347.42L132.06 344.88L126.5 342.13L121.06 339.17L115.75 336.01L110.57 332.66L105.53 329.11L100.64 325.38L95.9 321.47L91.31 317.38L86.89 313.11L82.62 308.69L78.53 304.1L74.62 299.36L70.89 294.47L67.34 289.43L63.99 284.25L60.83 278.94L57.87 273.5L55.12 267.94L52.58 262.25L50.26 256.46L48.16 250.55L46.29 244.54L44.65 238.43L43.25 232.23L42.1 225.94L41.19 219.57L40.53 213.11L40.13 206.59L40 200L40.13 193.41L40.53 186.89L41.19 180.43L42.1 174.06L43.25 167.77L44.65 161.57L46.29 155.46L48.16 149.45L50.26 143.54L52.58 137.75L52.87 137.11L51.58 135.43L50.25 133.54L48.99 131.6L47.81 129.6L46.7 127.56L45.67 125.48L44.72 123.35L43.85 121.17L43.06 118.96L42.36 116.7L41.75 114.41L41.22 112.09L40.79 109.73L40.44 107.34L40.2 104.92L40.05 102.47L40 100L40.05 97.53L40.2 95.08L40.44 92.66L40.79 90.27L41.22 87.91L41.75 85.59L42.36 83.3L43.06 81.04L43.85 78.83L44.72 76.65L45.67 74.52L46.7 72.44L47.81 70.4L48.99 68.4L50.25 66.46L51.58 64.57L52.98 62.74L54.45 60.96L55.98 59.24L57.58 57.58L59.24 55.98L60.96 54.45L62.74 52.98L64.57 51.58L66.46 50.25L68.4 48.99L70.4 47.81L72.44 46.7L74.52 45.67L76.65 44.72L78.83 43.85L81.04 43.06L83.3 42.36L85.59 41.75L87.91 41.22L90.27 40.79L92.66 40.44L95.08 40.2L97.53 40.05L100 40L102.47 40.05L104.92 40.2L107.34 40.44L109.73 40.79L112.09 41.22L114.41 41.75L116.7 42.36L118.96 43.06L121.17 43.85L123.35 44.72L125.48 45.67L127.56 46.7L129.6 47.81L131.6 48.99L133.54 50.25L135.43 51.58L137.11 52.87L137.75 52.58L143.54 50.26L149.45 48.16L155.46 46.29L161.57 44.65L167.77 43.25L174.06 42.1L180.43 41.19L186.89 40.53L193.41 40.13L200 40L206.59 40.13L213.11 40.53L219.57 41.19L225.94 42.1L232.23 43.25L238.43 44.65L244.54 46.29L250.55 48.16L256.46 50.26L262.25 52.58L262.89 52.87L264.57 51.58L266.46 50.25L268.4 48.99L270.4 47.81L272.44 46.7L274.52 45.67L276.65 44.72L278.83 43.85L281.04 43.06L283.3 42.36L285.59 41.75L287.91 41.22L290.27 40.79L292.66 40.44L295.08 40.2L297.53 40.05L300 40L302.47 40.05L304.92 40.2ZM296.72 60.13L295.11 60.3L293.52 60.52L291.94 60.81L290.39 61.16L288.87 61.57L287.36 62.04L285.89 62.57L284.44 63.15L283.02 63.78L281.62 64.47L280.26 65.21L278.94 66L277.64 66.84L276.38 67.72L275.16 68.66L273.97 69.63L272.83 70.66L271.72 71.72L270.66 72.83L269.63 73.97L268.66 75.16L267.72 76.38L266.84 77.64L266 78.94L265.21 80.26L264.47 81.62L263.78 83.02L263.15 84.44L262.57 85.89L262.04 87.36L261.57 88.87L261.16 90.39L260.81 91.94L260.52 93.52L260.3 95.11L260.19 96.2L259.21 95.62L255.13 93.4L250.95 91.34L246.69 89.44L242.34 87.7L237.91 86.12L233.4 84.72L228.82 83.49L224.17 82.44L219.45 81.57L214.67 80.89L209.84 80.4L204.94 80.1L200 80L195.06 80.1L190.16 80.4L185.33 80.89L180.55 81.57L175.83 82.44L171.18 83.49L166.6 84.72L162.09 86.12L157.66 87.7L153.31 89.44L149.05 91.34L144.87 93.4L140.79 95.62L139.81 96.2L139.7 95.11L139.48 93.52L139.19 91.94L138.84 90.39L138.43 88.87L137.96 87.36L137.43 85.89L136.85 84.44L136.22 83.02L135.53 81.62L134.79 80.26L134 78.94L133.16 77.64L132.28 76.38L131.34 75.16L130.37 73.97L129.34 72.83L128.28 71.72L127.17 70.66L126.03 69.63L124.84 68.66L123.62 67.72L122.36 66.84L121.06 66L119.74 65.21L118.38 64.47L116.98 63.78L115.56 63.15L114.11 62.57L112.64 62.04L111.13 61.57L109.61 61.16L108.06 60.81L106.48 60.52L104.89 60.3L103.28 60.13L101.65 60.03L100 60L98.35 60.03L96.72 60.13L95.11 60.3L93.52 60.52L91.94 60.81L90.39 61.16L88.87 61.57L87.36 62.04L85.89 62.57L84.44 63.15L83.02 63.78L81.62 64.47L80.26 65.21L78.94 66L77.64 66.84L76.38 67.72L75.16 68.66L73.97 69.63L72.83 70.66L71.72 71.72L70.66 72.83L69.63 73.97L68.66 75.16L67.72 76.38L66.84 77.64L66 78.94L65.21 80.26L64.47 81.62L63.78 83.02L63.15 84.44L62.57 85.89L62.04 87.36L61.57 88.87L61.16 90.39L60.81 91.94L60.52 93.52L60.3 95.11L60.13 96.72L60.03 98.35L60 100L60.03 101.65L60.13 103.28L60.3 104.89L60.52 106.48L60.81 108.06L61.16 109.61L61.57 111.13L62.04 112.64L62.57 114.11L63.15 115.56L63.78 116.98L64.47 118.38L65.21 119.74L66 121.06L66.84 122.36L67.72 123.62L68.66 124.84L69.63 126.03L70.66 127.17L71.72 128.28L72.83 129.34L73.97 130.37L75.16 131.34L76.38 132.28L77.64 133.16L78.94 134L80.26 134.79L81.62 135.53L83.02 136.22L84.44 136.85L85.89 137.43L87.36 137.96L88.87 138.43L90.39 138.84L91.94 139.19L93.52 139.48L95.11 139.7L96.2 139.81L95.62 140.79L93.4 144.87L91.34 149.05L89.44 153.31L87.7 157.66L86.12 162.09L84.72 166.6L83.49 171.18L82.44 175.83L81.57 180.55L80.89 185.33L80.4 190.16L80.1 195.06L80 200L80.1 204.94L80.4 209.84L80.89 214.67L81.57 219.45L82.44 224.17L83.49 228.82L84.72 233.4L86.12 237.91L87.7 242.34L89.44 246.69L91.34 250.95L93.4 255.13L95.62 259.21L97.99 263.19L100.51 267.07L103.17 270.85L105.97 274.52L108.9 278.08L111.97 281.52L115.16 284.84L118.48 288.03L121.92 291.1L125.48 294.03L129.15 296.83L132.93 299.49L136.81 302.01L140.79 304.38L144.87 306.6L149.05 308.66L153.31 310.56L157.66 312.3L162.09 313.88L166.6 315.28L171.18 316.51L175.83 317.56L180.55 318.43L185.33 319.11L190.16 319.6L195.06 319.9L200 320L204.94 319.9L209.84 319.6L214.67 319.11L219.45 318.43L224.17 317.56L228.82 316.51L233.4 315.28L237.91 313.88L242.34 312.3L246.69 310.56L250.95 308.66L255.13 306.6L259.21 304.38L263.19 302.01L267.07 299.49L270.85 296.83L274.52 294.03L278.08 291.1L281.52 288.03L284.84 284.84L288.03 281.52L291.1 278.08L294.03 274.52L296.83 270.85L299.49 267.07L302.01 263.19L304.38 259.21L306.6 255.13L308.66 250.95L310.56 246.69L312.3 242.34L313.88 237.91L315.28 233.4L316.51 228.82L317.56 224.17L318.43 219.45L319.11 214.67L319.6 209.84L319.9 204.94L320 200L319.9 195.06L319.6 190.16L319.11 185.33L318.43 180.55L317.56 175.83L316.51 171.18L315.28 166.6L313.88 162.09L312.3 157.66L310.56 153.31L308.66 149.05L306.6 144.87L304.38 140.79L303.8 139.81L304.89 139.7L306.48 139.48L308.06 139.19L309.61 138.84L311.13 138.43L312.64 137.96L314.11 137.43L315.56 136.85L316.98 136.22L318.38 135.53L319.74 134.79L321.06 134L322.36 133.16L323.62 132.28L324.84 131.34L326.03 130.37L327.17 129.34L328.28 128.28L329.34 127.17L330.37 126.03L331.34 124.84L332.28 123.62L333.16 122.36L334 121.06L334.79 119.74L335.53 118.38L336.22 116.98L336.85 115.56L337.43 114.11L337.96 112.64L338.43 111.13L338.84 109.61L339.19 108.06L339.48 106.48L339.7 104.89L339.87 103.28L339.97 101.65L340 100L339.97 98.35L339.87 96.72L339.7 95.11L339.48 93.52L339.19 91.94L338.84 90.39L338.43 88.87L337.96 87.36L337.43 85.89L336.85 84.44L336.22 83.02L335.53 81.62L334.79 80.26L334 78.94L333.16 77.64L332.28 76.38L331.34 75.16L330.37 73.97L329.34 72.83L328.28 71.72L327.17 70.66L326.03 69.63L324.84 68.66L323.62 67.72L322.36 66.84L321.06 66L319.74 65.21L318.38 64.47L316.98 63.78L315.56 63.15L314.11 62.57L312.64 62.04L311.13 61.57L309.61 61.16L308.06 60.81L306.48 60.52L304.89 60.3L303.28 60.13L301.65 60.03L300 60L298.35 60.03L296.72 60.13Z" id="dxJtRgiyk"></path></defs><g><g><g><use xlink:href="#h3FaTJCYa7" opacity="1" fill="#5f5135" fill-opacity="1"></use><g><use xlink:href="#h3FaTJCYa7" opacity="1" fill-opacity="0" stroke="#000000" stroke-width="0" stroke-opacity="1"></use></g></g><g><g><use xlink:href="#a1ep4UyhWt" opacity="1" fill-opacity="0" stroke="#5f5135" stroke-width="20" stroke-opacity="1"></use></g></g><g><g><use xlink:href="#e3BzGxX4w4" opacity="1" fill-opacity="0" stroke="#5f5135" stroke-width="20" stroke-opacity="1"></use></g></g><g><use xlink:href="#aVRF9hWfR" opacity="1" fill="#5f5135" fill-opacity="1"></use></g><g><use xlink:href="#a3k0CfcHHc" opacity="1" fill="#5f5135" fill-opacity="1"></use></g><g><use xlink:href="#dxJtRgiyk" opacity="1" fill="#5f5135" fill-opacity="1"></use></g></g></g></svg>