<?xml version="1.0" encoding="UTF-8" standalone="no"?>
<!DOCTYPE svg PUBLIC "-//W3C//DTD SVG 1.1//EN" "http://www.w3.org/Graphics/SVG/1.1/DTD/svg11.dtd">
<svg version="1.1" xmlns="http://www.w3.org/2000/svg" xmlns:xlink="http://www.w3.org/1999/xlink" preserveAspectRatio="xMidYMid meet" viewBox="0 0 400 400" width="400" height="400"><defs><path d="M39.73 199.73C39.28 335.05 132.92 361.06 199.96 359.97C267.01 358.87 218.87 253.19 239.96 239.97C261.06 226.75 279.11 242.55 299.96 279.97C320.81 317.38 365.72 345.32 359.73 199.73C353.74 54.13 289.01 40.76 199.73 39.73C110.45 38.7 40.18 64.41 39.73 199.73Z" id="d8yynPYnhk"></path><path d="M142.66 80.08L144.22 80.21L145.77 80.41L147.31 80.66L148.83 80.98L150.33 81.35L151.81 81.78L153.28 82.27L154.72 82.81L156.14 83.4L157.53 84.05L158.9 84.75L160.24 85.5L161.55 86.3L162.83 87.15L164.07 88.06L165.29 89L166.46 90L167.6 91.04L168.7 92.13L169.76 93.26L170.77 94.43L171.74 95.64L172.67 96.9L173.55 98.2L174.38 99.53L175.16 100.91L175.89 102.32L176.57 103.77L177.19 105.25L177.76 106.77L178.26 108.32L178.71 109.91L179.1 111.51L179.41 113.12L179.66 114.72L179.84 116.32L179.96 117.91L180.01 119.5L180 121.08L179.92 122.65L179.79 124.22L179.59 125.76L179.34 127.3L179.02 128.82L178.65 130.32L178.22 131.81L177.73 133.27L177.19 134.71L176.6 136.13L175.95 137.52L175.25 138.89L174.5 140.23L173.7 141.54L172.85 142.82L171.94 144.07L171 145.28L170 146.45L168.96 147.59L167.87 148.69L166.74 149.75L165.57 150.76L164.36 151.74L163.1 152.66L161.8 153.54L160.47 154.37L159.09 155.16L157.68 155.89L156.23 156.56L154.75 157.18L153.23 157.75L151.68 158.26L150.09 158.7L148.49 159.09L146.88 159.4L145.28 159.65L143.68 159.83L142.09 159.95L140.5 160L138.92 159.99L137.35 159.91L135.78 159.78L134.24 159.58L132.7 159.33L131.18 159.01L129.68 158.64L128.19 158.21L126.73 157.73L125.29 157.19L123.87 156.59L122.48 155.94L121.11 155.24L119.77 154.49L118.46 153.69L117.18 152.84L115.93 151.94L114.72 150.99L113.55 149.99L112.41 148.95L111.31 147.87L110.25 146.74L109.24 145.56L108.26 144.35L107.34 143.09L106.46 141.8L105.63 140.46L104.84 139.08L104.11 137.67L103.44 136.22L102.82 134.74L102.25 133.22L101.74 131.67L101.3 130.08L100.91 128.48L100.6 126.87L100.35 125.27L100.17 123.67L100.05 122.08L100 120.49L100.01 118.91L100.09 117.34L100.22 115.78L100.42 114.23L100.67 112.69L100.99 111.17L101.36 109.67L101.79 108.19L102.27 106.72L102.81 105.28L103.41 103.86L104.06 102.47L104.76 101.1L105.51 99.76L106.31 98.45L107.16 97.17L108.06 95.93L109.01 94.71L110.01 93.54L111.05 92.4L112.13 91.3L113.26 90.24L114.44 89.23L115.65 88.26L116.91 87.33L118.2 86.45L119.54 85.62L120.92 84.84L122.33 84.11L123.78 83.43L125.26 82.81L126.78 82.24L128.33 81.74L129.92 81.29L131.52 80.9L133.13 80.59L134.73 80.34L136.33 80.16L137.92 80.04L139.51 79.99L141.09 80L142.66 80.08ZM137.53 100.15L136.24 100.35L134.96 100.64L133.7 101.01L132.48 101.46L131.31 101.98L130.18 102.57L129.1 103.22L128.08 103.94L127.1 104.71L126.18 105.54L125.32 106.42L124.51 107.36L123.76 108.33L123.08 109.35L122.45 110.41L121.9 111.51L121.41 112.64L120.99 113.8L120.64 114.98L120.37 116.19L120.17 117.42L120.04 118.67L120 119.93L120.04 121.2L120.16 122.47L120.36 123.76L120.65 125.04L121.02 126.3L121.47 127.52L121.99 128.69L122.58 129.82L123.23 130.9L123.95 131.92L124.72 132.9L125.55 133.82L126.43 134.68L127.36 135.49L128.34 136.24L129.36 136.92L130.42 137.55L131.52 138.1L132.65 138.59L133.81 139.01L134.99 139.36L136.2 139.63L137.43 139.83L138.67 139.96L139.93 140L141.21 139.96L142.48 139.84L143.76 139.64L145.05 139.35L146.31 138.98L147.53 138.53L148.7 138.01L149.83 137.42L150.9 136.77L151.93 136.05L152.91 135.28L153.83 134.45L154.69 133.57L155.5 132.64L156.25 131.66L156.93 130.64L157.55 129.58L158.11 128.48L158.6 127.35L159.02 126.19L159.37 125.01L159.64 123.8L159.84 122.57L159.96 121.33L160.01 120.07L159.97 118.79L159.85 117.52L159.65 116.24L159.36 114.95L158.99 113.69L158.54 112.47L158.02 111.3L157.43 110.17L156.78 109.1L156.06 108.07L155.29 107.09L154.46 106.17L153.58 105.31L152.64 104.5L151.67 103.75L150.65 103.07L149.59 102.45L148.49 101.89L147.36 101.4L146.2 100.98L145.02 100.63L143.81 100.36L142.58 100.16L141.33 100.04L140.07 99.99L138.8 100.03L137.53 100.15Z" id="aA0G2jnbN"></path><path d="M230.82 66.45L232.43 66.62L234.02 66.85L235.6 67.14L237.15 67.49L238.67 67.9L240.18 68.36L241.65 68.89L243.1 69.47L244.52 70.1L245.91 70.79L247.27 71.53L248.6 72.32L249.9 73.16L251.16 74.04L252.38 74.98L253.56 75.96L254.71 76.98L255.82 78.04L256.88 79.15L257.9 80.3L258.88 81.48L259.82 82.71L260.7 83.96L261.54 85.26L262.33 86.59L263.07 87.95L263.76 89.34L264.39 90.76L264.97 92.21L265.5 93.68L265.97 95.19L266.37 96.71L266.72 98.27L267.01 99.84L267.24 101.43L267.41 103.04L267.5 104.67L267.54 106.32L267.5 107.97L267.41 109.6L267.24 111.21L267.01 112.81L266.72 114.38L266.37 115.93L265.97 117.46L265.5 118.96L264.97 120.44L264.39 121.89L263.76 123.31L263.07 124.7L262.33 126.06L261.54 127.39L260.7 128.68L259.82 129.94L258.88 131.16L257.9 132.35L256.88 133.49L255.82 134.6L254.71 135.67L253.56 136.69L252.38 137.67L251.16 138.6L249.9 139.49L248.6 140.33L247.27 141.12L245.91 141.85L244.52 142.54L243.1 143.18L241.65 143.76L240.18 144.28L238.67 144.75L237.15 145.16L235.6 145.51L234.02 145.8L232.43 146.03L230.82 146.19L229.19 146.29L227.54 146.32L225.89 146.29L224.26 146.19L222.65 146.03L221.05 145.8L219.48 145.51L217.93 145.16L216.4 144.75L214.9 144.28L213.42 143.76L211.97 143.18L210.55 142.54L209.16 141.85L207.8 141.12L206.47 140.33L205.18 139.49L203.92 138.6L202.7 137.67L201.51 136.69L200.37 135.67L199.26 134.6L198.19 133.49L197.17 132.35L196.19 131.16L195.26 129.94L194.37 128.68L193.53 127.39L192.74 126.06L192.01 124.7L191.32 123.31L190.68 121.89L190.1 120.44L189.58 118.96L189.11 117.46L188.7 115.93L188.35 114.38L188.06 112.81L187.83 111.21L187.67 109.6L187.57 107.97L187.54 106.32L187.57 104.67L187.67 103.04L187.83 101.43L188.06 99.84L188.35 98.27L188.7 96.71L189.11 95.19L189.58 93.68L190.1 92.21L190.68 90.76L191.32 89.34L192.01 87.95L192.74 86.59L193.53 85.26L194.37 83.96L195.26 82.71L196.19 81.48L197.17 80.3L198.19 79.15L199.26 78.04L200.37 76.98L201.51 75.96L202.7 74.98L203.92 74.04L205.18 73.16L206.47 72.32L207.8 71.53L209.16 70.79L210.55 70.1L211.97 69.47L213.42 68.89L214.9 68.36L216.4 67.9L217.93 67.49L219.48 67.14L221.05 66.85L222.65 66.62L224.26 66.45L225.89 66.36L227.54 66.32L229.19 66.36L230.82 66.45ZM224.93 86.49L223.67 86.7L222.43 86.98L221.22 87.34L220.04 87.78L218.91 88.28L217.8 88.85L216.75 89.49L215.73 90.18L214.76 90.94L213.84 91.76L212.97 92.62L212.16 93.54L211.4 94.51L210.7 95.53L210.07 96.59L209.49 97.69L208.99 98.83L208.56 100L208.2 101.21L207.91 102.45L207.71 103.72L207.58 105.01L207.54 106.32L207.58 107.64L207.71 108.93L207.91 110.19L208.2 111.43L208.56 112.64L208.99 113.82L209.49 114.95L210.07 116.06L210.7 117.11L211.4 118.13L212.16 119.1L212.97 120.02L213.84 120.89L214.76 121.7L215.73 122.46L216.75 123.16L217.8 123.79L218.91 124.37L220.04 124.87L221.22 125.3L222.43 125.66L223.67 125.95L224.93 126.15L226.22 126.28L227.54 126.32L228.85 126.28L230.14 126.15L231.41 125.95L232.65 125.66L233.86 125.3L235.03 124.87L236.17 124.37L237.27 123.79L238.33 123.16L239.35 122.46L240.32 121.7L241.24 120.89L242.11 120.02L242.92 119.1L243.68 118.13L244.37 117.11L245.01 116.06L245.58 114.95L246.08 113.82L246.52 112.64L246.88 111.43L247.16 110.19L247.37 108.93L247.5 107.64L247.54 106.32L247.5 105.01L247.37 103.72L247.16 102.45L246.88 101.21L246.52 100L246.08 98.83L245.58 97.69L245.01 96.59L244.37 95.53L243.68 94.51L242.92 93.54L242.11 92.62L241.24 91.76L240.32 90.94L239.35 90.18L238.33 89.49L237.27 88.85L236.17 88.28L235.03 87.78L233.86 87.34L232.65 86.98L231.41 86.7L230.14 86.49L228.85 86.36L227.54 86.32L226.22 86.36L224.93 86.49Z" id="crxvfHiiH"></path><path d="M299.81 120.13L301.43 120.3L303.02 120.52L304.59 120.81L306.14 121.16L307.67 121.57L309.17 122.04L310.65 122.57L312.1 123.15L313.52 123.78L314.91 124.47L316.27 125.21L317.6 126L318.89 126.84L320.15 127.72L321.38 128.66L322.56 129.63L323.71 130.66L324.81 131.72L325.88 132.83L326.9 133.97L327.88 135.16L328.81 136.38L329.7 137.64L330.54 138.94L331.33 140.26L332.07 141.62L332.75 143.02L333.39 144.44L333.97 145.89L334.49 147.36L334.96 148.87L335.37 150.39L335.72 151.94L336.01 153.52L336.24 155.11L336.4 156.72L336.5 158.35L336.53 160L336.5 161.65L336.4 163.28L336.24 164.89L336.01 166.48L335.72 168.06L335.37 169.61L334.96 171.13L334.49 172.64L333.97 174.11L333.39 175.56L332.75 176.98L332.07 178.38L331.33 179.74L330.54 181.06L329.7 182.36L328.81 183.62L327.88 184.84L326.9 186.03L325.88 187.17L324.81 188.28L323.71 189.34L322.56 190.37L321.38 191.34L320.15 192.28L318.89 193.16L317.6 194L316.27 194.79L314.91 195.53L313.52 196.22L312.1 196.85L310.65 197.43L309.17 197.96L307.67 198.43L306.14 198.84L304.59 199.19L303.02 199.48L301.43 199.7L299.81 199.87L298.18 199.97L296.53 200L294.89 199.97L293.26 199.87L291.64 199.7L290.05 199.48L288.48 199.19L286.93 198.84L285.4 198.43L283.9 197.96L282.42 197.43L280.97 196.85L279.55 196.22L278.16 195.53L276.8 194.79L275.47 194L274.18 193.16L272.92 192.28L271.69 191.34L270.51 190.37L269.36 189.34L268.26 188.28L267.19 187.17L266.17 186.03L265.19 184.84L264.26 183.62L263.37 182.36L262.53 181.06L261.74 179.74L261 178.38L260.31 176.98L259.68 175.56L259.1 174.11L258.58 172.64L258.11 171.13L257.7 169.61L257.35 168.06L257.06 166.48L256.83 164.89L256.67 163.28L256.57 161.65L256.53 160L256.57 158.35L256.67 156.72L256.83 155.11L257.06 153.52L257.35 151.94L257.7 150.39L258.11 148.87L258.58 147.36L259.1 145.89L259.68 144.44L260.31 143.02L261 141.62L261.74 140.26L262.53 138.94L263.37 137.64L264.26 136.38L265.19 135.16L266.17 133.97L267.19 132.83L268.26 131.72L269.36 130.66L270.51 129.63L271.69 128.66L272.92 127.72L274.18 126.84L275.47 126L276.8 125.21L278.16 124.47L279.55 123.78L280.97 123.15L282.42 122.57L283.9 122.04L285.4 121.57L286.93 121.16L288.48 120.81L290.05 120.52L291.64 120.3L293.26 120.13L294.89 120.03L296.53 120L298.18 120.03L299.81 120.13ZM293.93 140.17L292.66 140.38L291.42 140.66L290.22 141.02L289.04 141.45L287.9 141.96L286.8 142.53L285.74 143.16L284.73 143.86L283.76 144.62L282.84 145.43L281.97 146.3L281.15 147.22L280.4 148.19L279.7 149.21L279.06 150.27L278.49 151.37L277.99 152.51L277.56 153.68L277.2 154.89L276.91 156.13L276.7 157.39L276.58 158.69L276.53 160L276.58 161.31L276.7 162.61L276.91 163.87L277.2 165.11L277.56 166.32L277.99 167.49L278.49 168.63L279.06 169.73L279.7 170.79L280.4 171.81L281.15 172.78L281.97 173.7L282.84 174.57L283.76 175.38L284.73 176.14L285.74 176.84L286.8 177.47L287.9 178.04L289.04 178.55L290.22 178.98L291.42 179.34L292.66 179.62L293.93 179.83L295.22 179.96L296.53 180L297.85 179.96L299.14 179.83L300.41 179.62L301.65 179.34L302.85 178.98L304.03 178.55L305.17 178.04L306.27 177.47L307.33 176.84L308.34 176.14L309.31 175.38L310.23 174.57L311.1 173.7L311.92 172.78L312.67 171.81L313.37 170.79L314.01 169.73L314.58 168.63L315.08 167.49L315.51 166.32L315.87 165.11L316.16 163.87L316.37 162.61L316.49 161.31L316.53 160L316.49 158.69L316.37 157.39L316.16 156.13L315.87 154.89L315.51 153.68L315.08 152.51L314.58 151.37L314.01 150.27L313.37 149.21L312.67 148.19L311.92 147.22L311.1 146.3L310.23 145.43L309.31 144.62L308.34 143.86L307.33 143.16L306.27 142.53L305.17 141.96L304.03 141.45L302.85 141.02L301.65 140.66L300.41 140.38L299.14 140.17L297.85 140.04L296.53 140L295.22 140.04L293.93 140.17Z" id="b15r6gi0EB"></path><path d="M112.58 160.13L114.19 160.3L115.79 160.52L117.36 160.81L118.91 161.16L120.44 161.57L121.94 162.04L123.41 162.57L124.86 163.15L126.29 163.78L127.68 164.47L129.04 165.21L130.36 166L131.66 166.84L132.92 167.72L134.14 168.66L135.33 169.63L136.47 170.66L137.58 171.72L138.64 172.83L139.67 173.97L140.65 175.16L141.58 176.38L142.47 177.64L143.3 178.94L144.09 180.26L144.83 181.62L145.52 183.02L146.16 184.44L146.74 185.89L147.26 187.36L147.73 188.87L148.14 190.39L148.49 191.94L148.78 193.52L149 195.11L149.17 196.72L149.27 198.35L149.3 200L149.27 201.65L149.17 203.28L149 204.89L148.78 206.48L148.49 208.06L148.14 209.61L147.73 211.13L147.26 212.64L146.74 214.11L146.16 215.56L145.52 216.98L144.83 218.38L144.09 219.74L143.3 221.06L142.47 222.36L141.58 223.62L140.65 224.84L139.67 226.03L138.64 227.17L137.58 228.28L136.47 229.34L135.33 230.37L134.14 231.34L132.92 232.28L131.66 233.16L130.36 234L129.04 234.79L127.68 235.53L126.29 236.22L124.86 236.85L123.41 237.43L121.94 237.96L120.44 238.43L118.91 238.84L117.36 239.19L115.79 239.48L114.19 239.7L112.58 239.87L110.95 239.97L109.3 240L107.65 239.97L106.02 239.87L104.41 239.7L102.82 239.48L101.24 239.19L99.69 238.84L98.17 238.43L96.66 237.96L95.19 237.43L93.74 236.85L92.32 236.22L90.93 235.53L89.56 234.79L88.24 234L86.94 233.16L85.68 232.28L84.46 231.34L83.28 230.37L82.13 229.34L81.02 228.28L79.96 227.17L78.93 226.03L77.96 224.84L77.02 223.62L76.14 222.36L75.3 221.06L74.51 219.74L73.77 218.38L73.08 216.98L72.45 215.56L71.87 214.11L71.34 212.64L70.87 211.13L70.46 209.61L70.11 208.06L69.82 206.48L69.6 204.89L69.43 203.28L69.33 201.65L69.3 200L69.33 198.35L69.43 196.72L69.6 195.11L69.82 193.52L70.11 191.94L70.46 190.39L70.87 188.87L71.34 187.36L71.87 185.89L72.45 184.44L73.08 183.02L73.77 181.62L74.51 180.26L75.3 178.94L76.14 177.64L77.02 176.38L77.96 175.16L78.93 173.97L79.96 172.83L81.02 171.72L82.13 170.66L83.28 169.63L84.46 168.66L85.68 167.72L86.94 166.84L88.24 166L89.56 165.21L90.93 164.47L92.32 163.78L93.74 163.15L95.19 162.57L96.66 162.04L98.17 161.57L99.69 161.16L101.24 160.81L102.82 160.52L104.41 160.3L106.02 160.13L107.65 160.03L109.3 160L110.95 160.03L112.58 160.13ZM106.7 180.17L105.43 180.38L104.19 180.66L102.98 181.02L101.81 181.45L100.67 181.96L99.57 182.53L98.51 183.16L97.49 183.86L96.52 184.62L95.6 185.43L94.73 186.3L93.92 187.22L93.16 188.19L92.46 189.21L91.83 190.27L91.26 191.37L90.75 192.51L90.32 193.68L89.96 194.89L89.68 196.13L89.47 197.39L89.34 198.69L89.3 200L89.34 201.31L89.47 202.61L89.68 203.87L89.96 205.11L90.32 206.32L90.75 207.49L91.26 208.63L91.83 209.73L92.46 210.79L93.16 211.81L93.92 212.78L94.73 213.7L95.6 214.57L96.52 215.38L97.49 216.14L98.51 216.84L99.57 217.47L100.67 218.04L101.81 218.55L102.98 218.98L104.19 219.34L105.43 219.62L106.7 219.83L107.99 219.96L109.3 220L110.62 219.96L111.91 219.83L113.17 219.62L114.41 219.34L115.62 218.98L116.79 218.55L117.93 218.04L119.03 217.47L120.09 216.84L121.11 216.14L122.08 215.38L123 214.57L123.87 213.7L124.68 212.78L125.44 211.81L126.14 210.79L126.77 209.73L127.34 208.63L127.85 207.49L128.28 206.32L128.64 205.11L128.93 203.87L129.13 202.61L129.26 201.31L129.3 200L129.26 198.69L129.13 197.39L128.93 196.13L128.64 194.89L128.28 193.68L127.85 192.51L127.34 191.37L126.77 190.27L126.14 189.21L125.44 188.19L124.68 187.22L123.87 186.3L123 185.43L122.08 184.62L121.11 183.86L120.09 183.16L119.03 182.53L117.93 181.96L116.79 181.45L115.62 181.02L114.41 180.66L113.17 180.38L111.91 180.17L110.62 180.04L109.3 180L107.99 180.04L106.7 180.17Z" id="d3vinheHzn"></path><path d="M143.28 240.13L144.89 240.3L146.48 240.52L148.06 240.81L149.61 241.16L151.13 241.57L152.64 242.04L154.11 242.57L155.56 243.15L156.98 243.78L158.38 244.47L159.74 245.21L161.06 246L162.36 246.84L163.62 247.72L164.84 248.66L166.03 249.63L167.17 250.66L168.28 251.72L169.34 252.83L170.37 253.97L171.34 255.16L172.28 256.38L173.16 257.64L174 258.94L174.79 260.26L175.53 261.62L176.22 263.02L176.85 264.44L177.43 265.89L177.96 267.36L178.43 268.87L178.84 270.39L179.19 271.94L179.48 273.52L179.7 275.11L179.87 276.72L179.97 278.35L180 280L179.97 281.65L179.87 283.28L179.7 284.89L179.48 286.48L179.19 288.06L178.84 289.61L178.43 291.13L177.96 292.64L177.43 294.11L176.85 295.56L176.22 296.98L175.53 298.38L174.79 299.74L174 301.06L173.16 302.36L172.28 303.62L171.34 304.84L170.37 306.03L169.34 307.17L168.28 308.28L167.17 309.34L166.03 310.37L164.84 311.34L163.62 312.28L162.36 313.16L161.06 314L159.74 314.79L158.38 315.53L156.98 316.22L155.56 316.85L154.11 317.43L152.64 317.96L151.13 318.43L149.61 318.84L148.06 319.19L146.48 319.48L144.89 319.7L143.28 319.87L141.65 319.97L140 320L138.35 319.97L136.72 319.87L135.11 319.7L133.52 319.48L131.94 319.19L130.39 318.84L128.87 318.43L127.36 317.96L125.89 317.43L124.44 316.85L123.02 316.22L121.62 315.53L120.26 314.79L118.94 314L117.64 313.16L116.38 312.28L115.16 311.34L113.97 310.37L112.83 309.34L111.72 308.28L110.66 307.17L109.63 306.03L108.66 304.84L107.72 303.62L106.84 302.36L106 301.06L105.21 299.74L104.47 298.38L103.78 296.98L103.15 295.56L102.57 294.11L102.04 292.64L101.57 291.13L101.16 289.61L100.81 288.06L100.52 286.48L100.3 284.89L100.13 283.28L100.03 281.65L100 280L100.03 278.35L100.13 276.72L100.3 275.11L100.52 273.52L100.81 271.94L101.16 270.39L101.57 268.87L102.04 267.36L102.57 265.89L103.15 264.44L103.78 263.02L104.47 261.62L105.21 260.26L106 258.94L106.84 257.64L107.72 256.38L108.66 255.16L109.63 253.97L110.66 252.83L111.72 251.72L112.83 250.66L113.97 249.63L115.16 248.66L116.38 247.72L117.64 246.84L118.94 246L120.26 245.21L121.62 244.47L123.02 243.78L124.44 243.15L125.89 242.57L127.36 242.04L128.87 241.57L130.39 241.16L131.94 240.81L133.52 240.52L135.11 240.3L136.72 240.13L138.35 240.03L140 240L141.65 240.03L143.28 240.13ZM137.39 260.17L136.13 260.38L134.89 260.66L133.68 261.02L132.51 261.45L131.37 261.96L130.27 262.53L129.21 263.16L128.19 263.86L127.22 264.62L126.3 265.43L125.43 266.3L124.62 267.22L123.86 268.19L123.16 269.21L122.53 270.27L121.96 271.37L121.45 272.51L121.02 273.68L120.66 274.89L120.38 276.13L120.17 277.39L120.04 278.69L120 280L120.04 281.31L120.17 282.61L120.38 283.87L120.66 285.11L121.02 286.32L121.45 287.49L121.96 288.63L122.53 289.73L123.16 290.79L123.86 291.81L124.62 292.78L125.43 293.7L126.3 294.57L127.22 295.38L128.19 296.14L129.21 296.84L130.27 297.47L131.37 298.04L132.51 298.55L133.68 298.98L134.89 299.34L136.13 299.62L137.39 299.83L138.69 299.96L140 300L141.31 299.96L142.61 299.83L143.87 299.62L145.11 299.34L146.32 298.98L147.49 298.55L148.63 298.04L149.73 297.47L150.79 296.84L151.81 296.14L152.78 295.38L153.7 294.57L154.57 293.7L155.38 292.78L156.14 291.81L156.84 290.79L157.47 289.73L158.04 288.63L158.55 287.49L158.98 286.32L159.34 285.11L159.62 283.87L159.83 282.61L159.96 281.31L160 280L159.96 278.69L159.83 277.39L159.62 276.13L159.34 274.89L158.98 273.68L158.55 272.51L158.04 271.37L157.47 270.27L156.84 269.21L156.14 268.19L155.38 267.22L154.57 266.3L153.7 265.43L152.78 264.62L151.81 263.86L150.79 263.16L149.73 262.53L148.63 261.96L147.49 261.45L146.32 261.02L145.11 260.66L143.87 260.38L142.61 260.17L141.31 260.04L140 260L138.69 260.04L137.39 260.17Z" id="alkMnjEBc"></path></defs><g><g><g><use xlink:href="#d8yynPYnhk" opacity="1" fill="#6b5c43" fill-opacity="0"></use><g><use xlink:href="#d8yynPYnhk" opacity="1" fill-opacity="0" stroke="#6b5c43" stroke-width="20" stroke-opacity="1"></use></g></g><g><use xlink:href="#aA0G2jnbN" opacity="1" fill="#6b5c43" fill-opacity="1"></use></g><g><use xlink:href="#crxvfHiiH" opacity="1" fill="#6b5c43" fill-opacity="1"></use></g><g><use xlink:href="#b15r6gi0EB" opacity="1" fill="#6b5c43" fill-opacity="1"></use></g><g><use xlink:href="#d3vinheHzn" opacity="1" fill="#6b5c43" fill-opacity="1"></use></g><g><use xlink:href="#alkMnjEBc" opacity="1" fill="#6b5c43" fill-opacity="1"></use><g><use xlink:href="#alkMnjEBc" opacity="1" fill-opacity="0" stroke="#6b5c43" stroke-width="20" stroke-opacity="0"></use></g></g></g></g></svg>