<?xml version="1.0" encoding="UTF-8" standalone="no"?>
<!DOCTYPE svg PUBLIC "-//W3C//DTD SVG 1.1//EN" "http://www.w3.org/Graphics/SVG/1.1/DTD/svg11.dtd">
<svg version="1.1" xmlns="http://www.w3.org/2000/svg" xmlns:xlink="http://www.w3.org/1999/xlink" preserveAspectRatio="xMidYMid meet" viewBox="0 0 400 400" width="400" height="400"><defs><path d="M204.56 20.19L206.8 20.42L209.02 20.74L211.21 21.14L213.36 21.63L215.49 22.21L217.58 22.86L219.63 23.6L221.65 24.41L223.62 25.3L225.56 26.27L227.45 27.3L229.3 28.41L231.1 29.59L232.85 30.83L234.55 32.14L236.2 33.51L237.79 34.95L239.33 36.44L240.81 38L242.24 39.6L243.6 41.27L244.9 42.98L246.13 44.75L247.3 46.57L248.39 48.43L249.42 50.34L250.38 52.29L251.26 54.28L252.07 56.31L252.8 58.39L253.45 60.49L254.02 62.64L254.5 64.81L254.91 67.02L255.22 69.25L255.45 71.52L255.59 73.8L255.64 76.12L255.59 78.43L255.45 80.71L255.22 82.98L255.01 84.49L254.91 88.93L254.69 95.24L254.37 101.46L253.97 107.61L253.49 113.67L252.92 119.64L252.27 125.52L251.55 131.29L250.74 136.95L249.87 142.51L248.91 147.95L247.89 153.26L246.8 158.45L245.64 163.51L244.41 168.44L243.12 173.22L241.76 177.85L240.35 182.33L238.87 186.66L237.34 190.82L235.75 194.82L234.11 198.64L232.42 202.29L230.68 205.76L228.89 209.04L227.05 212.12L225.17 215.01L223.24 217.7L221.27 220.18L219.27 222.45L217.22 224.5L215.14 226.33L213.03 227.93L210.88 229.3L208.71 230.43L206.5 231.32L204.27 231.96L202.01 232.35L199.73 232.48L197.45 232.35L195.19 231.96L192.96 231.32L190.75 230.43L188.58 229.3L186.43 227.93L184.32 226.33L182.24 224.5L180.19 222.45L178.19 220.18L176.22 217.7L174.3 215.01L172.41 212.12L170.58 209.04L168.78 205.76L167.04 202.29L165.35 198.64L163.71 194.82L162.12 190.82L160.59 186.66L159.11 182.33L157.7 177.85L156.34 173.22L155.05 168.44L153.83 163.51L152.66 158.45L151.57 153.26L150.55 147.95L149.6 142.51L148.72 136.95L147.91 131.29L147.19 125.52L146.54 119.64L145.97 113.67L145.49 107.61L145.09 101.46L144.77 95.24L144.55 88.93L144.41 82.56L144.36 76.12L144.36 76.12L144.41 73.8L144.55 71.52L144.78 69.25L145.09 67.02L145.5 64.81L145.98 62.64L146.55 60.49L147.2 58.39L147.93 56.31L148.74 54.28L149.62 52.29L150.58 50.34L151.61 48.43L152.7 46.57L153.87 44.75L155.1 42.98L156.4 41.27L157.76 39.6L159.19 38L160.67 36.44L162.21 34.95L163.8 33.51L165.45 32.14L167.15 30.83L168.9 29.59L170.7 28.41L172.55 27.3L174.44 26.27L176.38 25.3L178.35 24.41L180.37 23.6L182.42 22.86L184.51 22.21L186.64 21.63L188.79 21.14L190.98 20.74L193.2 20.42L195.44 20.19L197.71 20.05L200 20L202.29 20.05L204.56 20.19ZM197.01 31.55L195.67 31.69L194.35 31.88L193.04 32.12L191.75 32.41L190.48 32.76L189.24 33.15L188.01 33.59L186.81 34.08L185.63 34.61L184.47 35.18L183.34 35.8L182.24 36.46L181.16 37.17L180.12 37.91L179.1 38.69L178.12 39.51L177.16 40.37L176.25 41.26L175.36 42.19L174.51 43.15L173.7 44.14L172.92 45.16L172.19 46.22L171.49 47.3L170.83 48.41L170.22 49.55L169.65 50.72L169.12 51.91L168.64 53.12L168.21 54.36L167.82 55.62L167.48 56.9L167.19 58.2L166.95 59.51L166.76 60.85L166.62 62.2L166.54 63.57L166.51 64.95L166.54 66.33L166.62 67.69L166.76 69.04L166.95 70.38L167.19 71.7L167.48 72.99L167.82 74.27L168.21 75.53L168.64 76.77L169.12 77.98L169.65 79.17L170.22 80.34L170.83 81.48L171.49 82.59L172.19 83.67L172.92 84.73L173.7 85.75L174.51 86.75L175.36 87.71L176.25 88.63L177.16 89.53L178.12 90.38L179.1 91.2L180.12 91.98L181.16 92.73L182.24 93.43L183.34 94.09L184.47 94.71L185.63 95.29L186.81 95.82L188.01 96.3L189.24 96.74L190.48 97.13L191.75 97.48L193.04 97.77L194.35 98.01L195.67 98.2L197.01 98.34L198.36 98.42L199.73 98.45L201.1 98.42L202.45 98.34L203.79 98.2L205.12 98.01L206.42 97.77L207.71 97.48L208.98 97.13L210.23 96.74L211.45 96.3L212.66 95.82L213.84 95.29L214.99 94.71L216.12 94.09L217.22 93.43L218.3 92.73L219.34 91.98L220.36 91.2L221.34 90.38L222.3 89.53L223.22 88.63L224.1 87.71L224.95 86.75L225.76 85.75L226.54 84.73L227.27 83.67L227.97 82.59L228.63 81.48L229.24 80.34L229.81 79.17L230.34 77.98L230.82 76.77L231.26 75.53L231.64 74.27L231.98 72.99L232.28 71.7L232.52 70.38L232.7 69.04L232.84 67.69L232.92 66.33L232.95 64.95L232.92 63.57L232.84 62.2L232.7 60.85L232.52 59.51L232.28 58.2L231.98 56.9L231.64 55.62L231.26 54.36L230.82 53.12L230.34 51.91L229.81 50.72L229.24 49.55L228.63 48.41L227.97 47.3L227.27 46.22L226.54 45.16L225.76 44.14L224.95 43.15L224.1 42.19L223.22 41.26L222.3 40.37L221.34 39.51L220.36 38.69L219.34 37.91L218.3 37.17L217.22 36.46L216.12 35.8L214.99 35.18L213.84 34.61L212.66 34.08L211.45 33.59L210.23 33.15L208.98 32.76L207.71 32.41L206.42 32.12L205.12 31.88L203.79 31.69L202.45 31.55L201.1 31.47L199.73 31.44L198.36 31.47L197.01 31.55Z" id="amAPeWzmC"></path><path d="M130.23 64.26L130.06 67.12L130 70L130.06 78.03L130.23 85.99L130.52 93.85L130.83 100L70 100L70 120L120 120L120 100L130.83 100L130.91 101.62L131.42 109.29L132.03 116.85L132.74 124.3L133.55 131.62L134.47 138.82L135.48 145.89L136.58 152.82L137.78 159.61L139.07 166.24L140.44 172.71L141.9 179.02L143.45 185.16L144.77 190L140 190L140 220L155.17 220L156.4 222.85L158.53 227.4L160.72 231.72L162.98 235.81L165.29 239.66L165.51 240L140 240L140 270L190 270L190 263.15L191.14 263.6L193.95 264.4L196.79 264.89L199.66 265.05L202.53 264.89L205.37 264.4L208.18 263.6L210 262.88L210 270L260 270L260 240L233.81 240L234.03 239.66L236.34 235.81L238.6 231.72L240.79 227.4L242.92 222.85L244.15 220L260 220L260 190L254.56 190L255.87 185.16L257.42 179.02L258.88 172.71L259.46 170L260 170L260 167.44L260.25 166.24L261.54 159.61L262.74 152.82L263.84 145.89L264.85 138.82L265.77 131.62L266.58 124.3L267.3 116.85L267.91 109.29L268.41 101.62L268.49 100L268.81 93.85L269.09 85.99L269.21 80.45L269.48 78.56L269.77 75.74L269.94 72.88L270 70L269.94 67.12L269.77 64.26L269.48 61.44L269.28 60L380 60L380.82 60.02L381.64 60.07L382.45 60.15L383.24 60.26L384.03 60.41L384.81 60.58L385.57 60.79L386.32 61.02L387.06 61.28L387.78 61.57L388.5 61.89L389.19 62.23L389.87 62.6L390.54 63L391.18 63.42L391.81 63.86L392.42 64.33L393.02 64.81L393.59 65.33L394.14 65.86L394.67 66.41L395.19 66.98L395.67 67.58L396.14 68.19L396.58 68.82L397 69.46L397.4 70.13L397.77 70.81L398.11 71.5L398.43 72.22L398.72 72.94L398.98 73.68L399.21 74.43L399.42 75.19L399.59 75.97L399.74 76.76L399.85 77.55L399.93 78.36L399.98 79.18L400 80L400 340L399.98 340.82L399.93 341.64L399.85 342.45L399.74 343.24L399.59 344.03L399.42 344.81L399.21 345.57L398.98 346.32L398.72 347.06L398.43 347.78L398.11 348.5L397.77 349.19L397.4 349.87L397 350.54L396.58 351.18L396.14 351.81L395.67 352.42L395.19 353.02L394.67 353.59L394.14 354.14L393.59 354.67L393.02 355.19L392.42 355.67L391.81 356.14L391.18 356.58L390.54 357L389.87 357.4L389.19 357.77L388.5 358.11L387.78 358.43L387.06 358.72L386.32 358.98L385.57 359.21L384.81 359.42L384.03 359.59L383.24 359.74L382.45 359.85L381.64 359.93L380.82 359.98L380 360L20 360L19.18 359.98L18.36 359.93L17.55 359.85L16.76 359.74L15.97 359.59L15.19 359.42L14.43 359.21L13.68 358.98L12.94 358.72L12.22 358.43L11.5 358.11L10.81 357.77L10.13 357.4L9.46 357L8.82 356.58L8.19 356.14L7.58 355.67L6.98 355.19L6.41 354.67L5.86 354.14L5.33 353.59L4.81 353.02L4.33 352.42L3.86 351.81L3.42 351.18L3 350.54L2.6 349.87L2.23 349.19L1.89 348.5L1.57 347.78L1.28 347.06L1.02 346.32L0.79 345.57L0.58 344.81L0.41 344.03L0.26 343.24L0.15 342.45L0.07 341.64L0.02 340.82L0 340L0 80L0.02 79.18L0.07 78.36L0.15 77.55L0.26 76.76L0.41 75.97L0.58 75.19L0.79 74.43L1.02 73.68L1.28 72.94L1.57 72.22L1.89 71.5L2.23 70.81L2.6 70.13L3 69.46L3.42 68.82L3.86 68.19L4.33 67.58L4.81 66.98L5.33 66.41L5.86 65.86L6.41 65.33L6.98 64.81L7.58 64.33L8.19 63.86L8.82 63.42L9.46 63L10.13 62.6L10.81 62.23L11.5 61.89L12.22 61.57L12.94 61.28L13.68 61.02L14.43 60.79L15.19 60.58L15.97 60.41L16.76 60.26L17.55 60.15L18.36 60.07L19.18 60.02L20 60L130.72 60L130.52 61.44L130.23 64.26ZM140 320L190 320L190 290L140 290L140 320ZM210 320L260 320L260 290L210 290L210 320ZM280 320L330 320L330 290L280 290L280 320ZM70 320L120 320L120 290L70 290L70 320ZM40 300L40.02 300.82L40.07 301.64L40.15 302.45L40.26 303.24L40.41 304.03L40.58 304.81L40.79 305.57L41.02 306.32L41.28 307.06L41.57 307.78L41.89 308.5L42.23 309.19L42.6 309.87L43 310.54L43.42 311.18L43.86 311.81L44.33 312.42L44.81 313.02L45.33 313.59L45.86 314.14L46.41 314.67L46.98 315.19L47.58 315.67L48.19 316.14L48.82 316.58L49.46 317L50 317.32L50 290L40 290L40 300ZM350 317.32L350.54 317L351.18 316.58L351.81 316.14L352.42 315.67L353.02 315.19L353.59 314.67L354.14 314.14L354.67 313.59L355.19 313.02L355.67 312.42L356.14 311.81L356.58 311.18L357 310.54L357.4 309.87L357.77 309.19L358.11 308.5L358.43 307.78L358.72 307.06L358.98 306.32L359.21 305.57L359.42 304.81L359.59 304.03L359.74 303.24L359.85 302.45L359.93 301.64L359.98 300.82L360 300L360 290L350 290L350 317.32ZM40 270L50 270L50 240L40 240L40 270ZM350 270L360 270L360 240L350 240L350 270ZM280 270L330 270L330 240L280 240L280 270ZM70 270L120 270L120 240L70 240L70 270ZM70 220L120 220L120 190L70 190L70 220ZM280 220L330 220L330 190L280 190L280 220ZM350 220L360 220L360 190L350 190L350 220ZM40 220L50 220L50 190L40 190L40 220ZM40 170L50 170L50 140L40 140L40 170ZM350 170L360 170L360 140L350 140L350 170ZM280 170L330 170L330 140L280 140L280 170ZM70 170L120 170L120 140L70 140L70 170ZM360 120L359.98 119.18L359.93 118.36L359.85 117.55L359.74 116.76L359.59 115.97L359.42 115.19L359.21 114.43L358.98 113.68L358.72 112.94L358.43 112.22L358.11 111.5L357.77 110.81L357.4 110.13L357 109.46L356.58 108.82L356.14 108.19L355.67 107.58L355.19 106.98L354.67 106.41L354.14 105.86L353.59 105.33L353.02 104.81L352.42 104.33L351.81 103.86L351.18 103.42L350.54 103L350 102.68L350 120L360 120ZM48.82 103.42L48.19 103.86L47.58 104.33L46.98 104.81L46.41 105.33L45.86 105.86L45.33 106.41L44.81 106.98L44.33 107.58L43.86 108.19L43.42 108.82L43 109.46L42.6 110.13L42.23 110.81L41.89 111.5L41.57 112.22L41.28 112.94L41.02 113.68L40.79 114.43L40.58 115.19L40.41 115.97L40.26 116.76L40.15 117.55L40.07 118.36L40.02 119.18L40 120L50 120L50 102.68L49.46 103L48.82 103.42ZM330 100L280 100L280 120L330 120L330 100Z" id="e2ziYSjabi"></path></defs><g><g><g><use xlink:href="#amAPeWzmC" opacity="1" fill="#6b5c43" fill-opacity="1"></use></g><g><use xlink:href="#e2ziYSjabi" opacity="1" fill="#6b5c43" fill-opacity="1"></use></g></g></g></svg>