<?xml version="1.0" encoding="UTF-8" standalone="no"?>
<!DOCTYPE svg PUBLIC "-//W3C//DTD SVG 1.1//EN" "http://www.w3.org/Graphics/SVG/1.1/DTD/svg11.dtd">
<svg version="1.1" xmlns="http://www.w3.org/2000/svg" xmlns:xlink="http://www.w3.org/1999/xlink" preserveAspectRatio="xMidYMid meet" viewBox="0 0 400 400" width="400" height="400"><defs><path d="M359.96 341.31L359.83 342.61L359.62 343.87L359.34 345.11L358.98 346.32L358.55 347.49L358.04 348.63L357.47 349.73L356.84 350.79L356.14 351.81L355.38 352.78L354.57 353.7L353.7 354.57L352.78 355.38L351.81 356.14L350.79 356.84L349.73 357.47L348.63 358.04L347.49 358.55L346.32 358.98L345.11 359.34L343.87 359.62L342.61 359.83L341.31 359.96L340 360L60 360L58.69 359.96L57.39 359.83L56.13 359.62L54.89 359.34L53.68 358.98L52.51 358.55L51.37 358.04L50.27 357.47L49.21 356.84L48.19 356.14L47.22 355.38L46.3 354.57L45.43 353.7L44.62 352.78L43.86 351.81L43.16 350.79L42.53 349.73L41.96 348.63L41.45 347.49L41.02 346.32L40.66 345.11L40.38 343.87L40.17 342.61L40.04 341.31L40 340L40 140L360 140L360 340L359.96 341.31ZM79.18 160.02L78.36 160.07L77.55 160.15L76.76 160.26L75.97 160.41L75.19 160.58L74.43 160.79L73.68 161.02L72.94 161.28L72.22 161.57L71.5 161.89L70.81 162.23L70.13 162.6L69.46 163L68.82 163.42L68.19 163.86L67.58 164.33L66.98 164.81L66.41 165.33L65.86 165.86L65.33 166.41L64.81 166.98L64.33 167.58L63.86 168.19L63.42 168.82L63 169.46L62.6 170.13L62.23 170.81L61.89 171.5L61.57 172.22L61.28 172.94L61.02 173.68L60.79 174.43L60.58 175.19L60.41 175.97L60.26 176.76L60.15 177.55L60.07 178.36L60.02 179.18L60 180L60 320L60.02 320.82L60.07 321.64L60.15 322.45L60.26 323.24L60.41 324.03L60.58 324.81L60.79 325.57L61.02 326.32L61.28 327.06L61.57 327.78L61.89 328.5L62.23 329.19L62.6 329.87L63 330.54L63.42 331.18L63.86 331.81L64.33 332.42L64.81 333.02L65.33 333.59L65.86 334.14L66.41 334.67L66.98 335.19L67.58 335.67L68.19 336.14L68.82 336.58L69.46 337L70.13 337.4L70.81 337.77L71.5 338.11L72.22 338.43L72.94 338.72L73.68 338.98L74.43 339.21L75.19 339.42L75.97 339.59L76.76 339.74L77.55 339.85L78.36 339.93L79.18 339.98L80 340L320 340L320.82 339.98L321.64 339.93L322.45 339.85L323.24 339.74L324.03 339.59L324.81 339.42L325.57 339.21L326.32 338.98L327.06 338.72L327.78 338.43L328.5 338.11L329.19 337.77L329.87 337.4L330.54 337L331.18 336.58L331.81 336.14L332.42 335.67L333.02 335.19L333.59 334.67L334.14 334.14L334.67 333.59L335.19 333.02L335.67 332.42L336.14 331.81L336.58 331.18L337 330.54L337.4 329.87L337.77 329.19L338.11 328.5L338.43 327.78L338.72 327.06L338.98 326.32L339.21 325.57L339.42 324.81L339.59 324.03L339.74 323.24L339.85 322.45L339.93 321.64L339.98 320.82L340 320L340 180L339.98 179.18L339.93 178.36L339.85 177.55L339.74 176.76L339.59 175.97L339.42 175.19L339.21 174.43L338.98 173.68L338.72 172.94L338.43 172.22L338.11 171.5L337.77 170.81L337.4 170.13L337 169.46L336.58 168.82L336.14 168.19L335.67 167.58L335.19 166.98L334.67 166.41L334.14 165.86L333.59 165.33L333.02 164.81L332.42 164.33L331.81 163.86L331.18 163.42L330.54 163L329.87 162.6L329.19 162.23L328.5 161.89L327.78 161.57L327.06 161.28L326.32 161.02L325.57 160.79L324.81 160.58L324.03 160.41L323.24 160.26L322.45 160.15L321.64 160.07L320.82 160.02L320 160L80 160L79.18 160.02ZM121.64 260.07L122.45 260.15L123.24 260.26L124.03 260.41L124.81 260.58L125.57 260.79L126.32 261.02L127.06 261.28L127.78 261.57L128.5 261.89L129.19 262.23L129.87 262.6L130.54 263L131.18 263.42L131.81 263.86L132.42 264.33L133.02 264.81L133.59 265.33L134.14 265.86L134.67 266.41L135.19 266.98L135.67 267.58L136.14 268.19L136.58 268.82L137 269.46L137.4 270.13L137.77 270.81L138.11 271.5L138.43 272.22L138.72 272.94L138.98 273.68L139.21 274.43L139.42 275.19L139.59 275.97L139.74 276.76L139.85 277.55L139.93 278.36L139.98 279.18L140 280L140 300L139.98 300.82L139.93 301.64L139.85 302.45L139.74 303.24L139.59 304.03L139.42 304.81L139.21 305.57L138.98 306.32L138.72 307.06L138.43 307.78L138.11 308.5L137.77 309.19L137.4 309.87L137 310.54L136.58 311.18L136.14 311.81L135.67 312.42L135.19 313.02L134.67 313.59L134.14 314.14L133.59 314.67L133.02 315.19L132.42 315.67L131.81 316.14L131.18 316.58L130.54 317L129.87 317.4L129.19 317.77L128.5 318.11L127.78 318.43L127.06 318.72L126.32 318.98L125.57 319.21L124.81 319.42L124.03 319.59L123.24 319.74L122.45 319.85L121.64 319.93L120.82 319.98L120 320L100 320L99.18 319.98L98.36 319.93L97.55 319.85L96.76 319.74L95.97 319.59L95.19 319.42L94.43 319.21L93.68 318.98L92.94 318.72L92.22 318.43L91.5 318.11L90.81 317.77L90.13 317.4L89.46 317L88.82 316.58L88.19 316.14L87.58 315.67L86.98 315.19L86.41 314.67L85.86 314.14L85.33 313.59L84.81 313.02L84.33 312.42L83.86 311.81L83.42 311.18L83 310.54L82.6 309.87L82.23 309.19L81.89 308.5L81.57 307.78L81.28 307.06L81.02 306.32L80.79 305.57L80.58 304.81L80.41 304.03L80.26 303.24L80.15 302.45L80.07 301.64L80.02 300.82L80 300L80 280L80.02 279.18L80.07 278.36L80.15 277.55L80.26 276.76L80.41 275.97L80.58 275.19L80.79 274.43L81.02 273.68L81.28 272.94L81.57 272.22L81.89 271.5L82.23 270.81L82.6 270.13L83 269.46L83.42 268.82L83.86 268.19L84.33 267.58L84.81 266.98L85.33 266.41L85.86 265.86L86.41 265.33L86.98 264.81L87.58 264.33L88.19 263.86L88.82 263.42L89.46 263L90.13 262.6L90.81 262.23L91.5 261.89L92.22 261.57L92.94 261.28L93.68 261.02L94.43 260.79L95.19 260.58L95.97 260.41L96.76 260.26L97.55 260.15L98.36 260.07L99.18 260.02L100 260L120 260L120.82 260.02L121.64 260.07ZM201.64 260.07L202.45 260.15L203.24 260.26L204.03 260.41L204.81 260.58L205.57 260.79L206.32 261.02L207.06 261.28L207.78 261.57L208.5 261.89L209.19 262.23L209.87 262.6L210.54 263L211.18 263.42L211.81 263.86L212.42 264.33L213.02 264.81L213.59 265.33L214.14 265.86L214.67 266.41L215.19 266.98L215.67 267.58L216.14 268.19L216.58 268.82L217 269.46L217.4 270.13L217.77 270.81L218.11 271.5L218.43 272.22L218.72 272.94L218.98 273.68L219.21 274.43L219.42 275.19L219.59 275.97L219.74 276.76L219.85 277.55L219.93 278.36L219.98 279.18L220 280L220 300L219.98 300.82L219.93 301.64L219.85 302.45L219.74 303.24L219.59 304.03L219.42 304.81L219.21 305.57L218.98 306.32L218.72 307.06L218.43 307.78L218.11 308.5L217.77 309.19L217.4 309.87L217 310.54L216.58 311.18L216.14 311.81L215.67 312.42L215.19 313.02L214.67 313.59L214.14 314.14L213.59 314.67L213.02 315.19L212.42 315.67L211.81 316.14L211.18 316.58L210.54 317L209.87 317.4L209.19 317.77L208.5 318.11L207.78 318.43L207.06 318.72L206.32 318.98L205.57 319.21L204.81 319.42L204.03 319.59L203.24 319.74L202.45 319.85L201.64 319.93L200.82 319.98L200 320L180 320L179.18 319.98L178.36 319.93L177.55 319.85L176.76 319.74L175.97 319.59L175.19 319.42L174.43 319.21L173.68 318.98L172.94 318.72L172.22 318.43L171.5 318.11L170.81 317.77L170.13 317.4L169.46 317L168.82 316.58L168.19 316.14L167.58 315.67L166.98 315.19L166.41 314.67L165.86 314.14L165.33 313.59L164.81 313.02L164.33 312.42L163.86 311.81L163.42 311.18L163 310.54L162.6 309.87L162.23 309.19L161.89 308.5L161.57 307.78L161.28 307.06L161.02 306.32L160.79 305.57L160.58 304.81L160.41 304.03L160.26 303.24L160.15 302.45L160.07 301.64L160.02 300.82L160 300L160 280L160.02 279.18L160.07 278.36L160.15 277.55L160.26 276.76L160.41 275.97L160.58 275.19L160.79 274.43L161.02 273.68L161.28 272.94L161.57 272.22L161.89 271.5L162.23 270.81L162.6 270.13L163 269.46L163.42 268.82L163.86 268.19L164.33 267.58L164.81 266.98L165.33 266.41L165.86 265.86L166.41 265.33L166.98 264.81L167.58 264.33L168.19 263.86L168.82 263.42L169.46 263L170.13 262.6L170.81 262.23L171.5 261.89L172.22 261.57L172.94 261.28L173.68 261.02L174.43 260.79L175.19 260.58L175.97 260.41L176.76 260.26L177.55 260.15L178.36 260.07L179.18 260.02L180 260L200 260L200.82 260.02L201.64 260.07ZM281.64 180.07L282.45 180.15L283.24 180.26L284.03 180.41L284.81 180.58L285.57 180.79L286.32 181.02L287.06 181.28L287.78 181.57L288.5 181.89L289.19 182.23L289.87 182.6L290.54 183L291.18 183.42L291.81 183.86L292.42 184.33L293.02 184.81L293.59 185.33L294.14 185.86L294.67 186.41L295.19 186.98L295.67 187.58L296.14 188.19L296.58 188.82L297 189.46L297.4 190.13L297.77 190.81L298.11 191.5L298.43 192.22L298.72 192.94L298.98 193.68L299.21 194.43L299.42 195.19L299.59 195.97L299.74 196.76L299.85 197.55L299.93 198.36L299.98 199.18L300 200L300 220L299.98 220.82L299.93 221.64L299.85 222.45L299.74 223.24L299.59 224.03L299.42 224.81L299.21 225.57L298.98 226.32L298.72 227.06L298.43 227.78L298.11 228.5L297.77 229.19L297.4 229.87L297 230.54L296.58 231.18L296.14 231.81L295.67 232.42L295.19 233.02L294.67 233.59L294.14 234.14L293.59 234.67L293.02 235.19L292.42 235.67L291.81 236.14L291.18 236.58L290.54 237L289.87 237.4L289.19 237.77L288.5 238.11L287.78 238.43L287.06 238.72L286.32 238.98L285.57 239.21L284.81 239.42L284.03 239.59L283.24 239.74L282.45 239.85L281.64 239.93L280.82 239.98L280 240L260 240L259.18 239.98L258.36 239.93L257.55 239.85L256.76 239.74L255.97 239.59L255.19 239.42L254.43 239.21L253.68 238.98L252.94 238.72L252.22 238.43L251.5 238.11L250.81 237.77L250.13 237.4L249.46 237L248.82 236.58L248.19 236.14L247.58 235.67L246.98 235.19L246.41 234.67L245.86 234.14L245.33 233.59L244.81 233.02L244.33 232.42L243.86 231.81L243.42 231.18L243 230.54L242.6 229.87L242.23 229.19L241.89 228.5L241.57 227.78L241.28 227.06L241.02 226.32L240.79 225.57L240.58 224.81L240.41 224.03L240.26 223.24L240.15 222.45L240.07 221.64L240.02 220.82L240 220L240 200L240.02 199.18L240.07 198.36L240.15 197.55L240.26 196.76L240.41 195.97L240.58 195.19L240.79 194.43L241.02 193.68L241.28 192.94L241.57 192.22L241.89 191.5L242.23 190.81L242.6 190.13L243 189.46L243.42 188.82L243.86 188.19L244.33 187.58L244.81 186.98L245.33 186.41L245.86 185.86L246.41 185.33L246.98 184.81L247.58 184.33L248.19 183.86L248.82 183.42L249.46 183L250.13 182.6L250.81 182.23L251.5 181.89L252.22 181.57L252.94 181.28L253.68 181.02L254.43 180.79L255.19 180.58L255.97 180.41L256.76 180.26L257.55 180.15L258.36 180.07L259.18 180.02L260 180L280 180L280.82 180.02L281.64 180.07ZM201.64 180.07L202.45 180.15L203.24 180.26L204.03 180.41L204.81 180.58L205.57 180.79L206.32 181.02L207.06 181.28L207.78 181.57L208.5 181.89L209.19 182.23L209.87 182.6L210.54 183L211.18 183.42L211.81 183.86L212.42 184.33L213.02 184.81L213.59 185.33L214.14 185.86L214.67 186.41L215.19 186.98L215.67 187.58L216.14 188.19L216.58 188.82L217 189.46L217.4 190.13L217.77 190.81L218.11 191.5L218.43 192.22L218.72 192.94L218.98 193.68L219.21 194.43L219.42 195.19L219.59 195.97L219.74 196.76L219.85 197.55L219.93 198.36L219.98 199.18L220 200L220 220L219.98 220.82L219.93 221.64L219.85 222.45L219.74 223.24L219.59 224.03L219.42 224.81L219.21 225.57L218.98 226.32L218.72 227.06L218.43 227.78L218.11 228.5L217.77 229.19L217.4 229.87L217 230.54L216.58 231.18L216.14 231.81L215.67 232.42L215.19 233.02L214.67 233.59L214.14 234.14L213.59 234.67L213.02 235.19L212.42 235.67L211.81 236.14L211.18 236.58L210.54 237L209.87 237.4L209.19 237.77L208.5 238.11L207.78 238.43L207.06 238.72L206.32 238.98L205.57 239.21L204.81 239.42L204.03 239.59L203.24 239.74L202.45 239.85L201.64 239.93L200.82 239.98L200 240L180 240L179.18 239.98L178.36 239.93L177.55 239.85L176.76 239.74L175.97 239.59L175.19 239.42L174.43 239.21L173.68 238.98L172.94 238.72L172.22 238.43L171.5 238.11L170.81 237.77L170.13 237.4L169.46 237L168.82 236.58L168.19 236.14L167.58 235.67L166.98 235.19L166.41 234.67L165.86 234.14L165.33 233.59L164.81 233.02L164.33 232.42L163.86 231.81L163.42 231.18L163 230.54L162.6 229.87L162.23 229.19L161.89 228.5L161.57 227.78L161.28 227.06L161.02 226.32L160.79 225.57L160.58 224.81L160.41 224.03L160.26 223.24L160.15 222.45L160.07 221.64L160.02 220.82L160 220L160 200L160.02 199.18L160.07 198.36L160.15 197.55L160.26 196.76L160.41 195.97L160.58 195.19L160.79 194.43L161.02 193.68L161.28 192.94L161.57 192.22L161.89 191.5L162.23 190.81L162.6 190.13L163 189.46L163.42 188.82L163.86 188.19L164.33 187.58L164.81 186.98L165.33 186.41L165.86 185.86L166.41 185.33L166.98 184.81L167.58 184.33L168.19 183.86L168.82 183.42L169.46 183L170.13 182.6L170.81 182.23L171.5 181.89L172.22 181.57L172.94 181.28L173.68 181.02L174.43 180.79L175.19 180.58L175.97 180.41L176.76 180.26L177.55 180.15L178.36 180.07L179.18 180.02L180 180L200 180L200.82 180.02L201.64 180.07ZM342.61 40.17L343.87 40.38L345.11 40.66L346.32 41.02L347.49 41.45L348.63 41.96L349.73 42.53L350.79 43.16L351.81 43.86L352.78 44.62L353.7 45.43L354.57 46.3L355.38 47.22L356.14 48.19L356.84 49.21L357.47 50.27L358.04 51.37L358.55 52.51L358.98 53.68L359.34 54.89L359.62 56.13L359.83 57.39L359.96 58.69L360 60L360 120L40 120L40 60L40.04 58.69L40.17 57.39L40.38 56.13L40.66 54.89L41.02 53.68L41.45 52.51L41.96 51.37L42.53 50.27L43.16 49.21L43.86 48.19L44.62 47.22L45.43 46.3L46.3 45.43L47.22 44.62L48.19 43.86L49.21 43.16L50.27 42.53L51.37 41.96L52.51 41.45L53.68 41.02L54.89 40.66L56.13 40.38L57.39 40.17L58.69 40.04L60 40L340 40L341.31 40.04L342.61 40.17ZM97.39 60.17L96.13 60.38L94.89 60.66L93.68 61.02L92.51 61.45L91.37 61.96L90.27 62.53L89.21 63.16L88.19 63.86L87.22 64.62L86.3 65.43L85.43 66.3L84.62 67.22L83.86 68.19L83.16 69.21L82.53 70.27L81.96 71.37L81.45 72.51L81.02 73.68L80.66 74.89L80.38 76.13L80.17 77.39L80.04 78.69L80 80L80.04 81.31L80.17 82.61L80.38 83.87L80.66 85.11L81.02 86.32L81.45 87.49L81.96 88.63L82.53 89.73L83.16 90.79L83.86 91.81L84.62 92.78L85.43 93.7L86.3 94.57L87.22 95.38L88.19 96.14L89.21 96.84L90.27 97.47L91.37 98.04L92.51 98.55L93.68 98.98L94.89 99.34L96.13 99.62L97.39 99.83L98.69 99.96L100 100L101.31 99.96L102.61 99.83L103.87 99.62L105.11 99.34L106.32 98.98L107.49 98.55L108.63 98.04L109.73 97.47L110.79 96.84L111.81 96.14L112.78 95.38L113.7 94.57L114.57 93.7L115.38 92.78L116.14 91.81L116.84 90.79L117.47 89.73L118.04 88.63L118.55 87.49L118.98 86.32L119.34 85.11L119.62 83.87L119.83 82.61L119.96 81.31L120 80L119.96 78.69L119.83 77.39L119.62 76.13L119.34 74.89L118.98 73.68L118.55 72.51L118.04 71.37L117.47 70.27L116.84 69.21L116.14 68.19L115.38 67.22L114.57 66.3L113.7 65.43L112.78 64.62L111.81 63.86L110.79 63.16L109.73 62.53L108.63 61.96L107.49 61.45L106.32 61.02L105.11 60.66L103.87 60.38L102.61 60.17L101.31 60.04L100 60L98.69 60.04L97.39 60.17ZM297.39 60.17L296.13 60.38L294.89 60.66L293.68 61.02L292.51 61.45L291.37 61.96L290.27 62.53L289.21 63.16L288.19 63.86L287.22 64.62L286.3 65.43L285.43 66.3L284.62 67.22L283.86 68.19L283.16 69.21L282.53 70.27L281.96 71.37L281.45 72.51L281.02 73.68L280.66 74.89L280.38 76.13L280.17 77.39L280.04 78.69L280 80L280.04 81.31L280.17 82.61L280.38 83.87L280.66 85.11L281.02 86.32L281.45 87.49L281.96 88.63L282.53 89.73L283.16 90.79L283.86 91.81L284.62 92.78L285.43 93.7L286.3 94.57L287.22 95.38L288.19 96.14L289.21 96.84L290.27 97.47L291.37 98.04L292.51 98.55L293.68 98.98L294.89 99.34L296.13 99.62L297.39 99.83L298.69 99.96L300 100L301.31 99.96L302.61 99.83L303.87 99.62L305.11 99.34L306.32 98.98L307.49 98.55L308.63 98.04L309.73 97.47L310.79 96.84L311.81 96.14L312.78 95.38L313.7 94.57L314.57 93.7L315.38 92.78L316.14 91.81L316.84 90.79L317.47 89.73L318.04 88.63L318.55 87.49L318.98 86.32L319.34 85.11L319.62 83.87L319.83 82.61L319.96 81.31L320 80L319.96 78.69L319.83 77.39L319.62 76.13L319.34 74.89L318.98 73.68L318.55 72.51L318.04 71.37L317.47 70.27L316.84 69.21L316.14 68.19L315.38 67.22L314.57 66.3L313.7 65.43L312.78 64.62L311.81 63.86L310.79 63.16L309.73 62.53L308.63 61.96L307.49 61.45L306.32 61.02L305.11 60.66L303.87 60.38L302.61 60.17L301.31 60.04L300 60L298.69 60.04L297.39 60.17Z" id="ctZdhQx27"></path></defs><g><g><g><use xlink:href="#ctZdhQx27" opacity="1" fill="#6b5c43" fill-opacity="1"></use></g></g></g></svg>