<?xml version="1.0" encoding="UTF-8" standalone="no"?>
<!DOCTYPE svg PUBLIC "-//W3C//DTD SVG 1.1//EN" "http://www.w3.org/Graphics/SVG/1.1/DTD/svg11.dtd">
<svg version="1.1" xmlns="http://www.w3.org/2000/svg" xmlns:xlink="http://www.w3.org/1999/xlink" preserveAspectRatio="xMidYMid meet" viewBox="0 0 400 400" width="400" height="400"><defs><path d="M357.89 200L357.89 360L42.11 360L42.11 200L0 200L42.11 60L357.89 60L400 200L357.89 200ZM84.21 320L189.47 320L189.47 240L84.21 240L84.21 320ZM210.53 317.93L315.79 317.93L315.79 237.93L210.53 237.93L210.53 317.93ZM210.53 220L315.79 220L315.79 140L210.53 140L210.53 220ZM84.21 220L189.47 220L189.47 140L84.21 140L84.21 220Z" id="o8ALsLZvE"></path></defs><g><g><g><use xlink:href="#o8ALsLZvE" opacity="1" fill="#6b5c43" fill-opacity="1"></use></g></g></g></svg>