<svg version="1.1" viewBox="0.0 0.0 1978.6640419947507 580.5170603674541" fill="none" stroke="none" stroke-linecap="square" stroke-miterlimit="10" xmlns:xlink="http://www.w3.org/1999/xlink" xmlns="http://www.w3.org/2000/svg"><clipPath id="p.0"><path d="m0 0l1978.6641 0l0 580.5171l-1978.6641 0l0 -580.5171z" clip-rule="nonzero"/></clipPath><g clip-path="url(#p.0)"><path fill="#000000" fill-opacity="0.0" d="m0 0l1978.6641 0l0 580.5171l-1978.6641 0z" fill-rule="evenodd"/><defs><linearGradient id="p.1" gradientUnits="userSpaceOnUse" gradientTransform="matrix(0.0 13.251083251954611 -13.251083251954611 0.0 0.0 0.0)" spreadMethod="pad" x1="3.3840644445747365" y1="-141.15109082626503" x2="3.384016473950934" y2="-127.90000757439726"><stop offset="0.0" stop-color="#ffffff"/><stop offset="1.0" stop-color="#ffffff" stop-opacity="0.23137255"/></linearGradient></defs><path fill="url(#p.1)" d="m1782.6089 44.842518l0 0c48.488037 0 87.79529 39.307285 87.79529 87.79529l0 0c0 23.284744 -9.249756 45.615814 -25.7146 62.080627c-16.464844 16.464813 -38.7959 25.714645 -62.08069 25.714645l0 0c-48.487915 0 -87.79529 -39.30728 -87.79529 -87.79527l0 0c0 -48.488 39.307373 -87.79529 87.79529 -87.79529z" fill-rule="evenodd"/><defs><linearGradient id="p.2" gradientUnits="userSpaceOnUse" gradientTransform="matrix(0.0 13.251083251954611 -13.251083251954611 0.0 0.0 0.0)" spreadMethod="pad" x1="25.258767934767583" y1="-133.48510041371742" x2="25.25871996414378" y2="-120.23401716184965"><stop offset="0.0" stop-color="#ffffff"/><stop offset="1.0" stop-color="#ffffff" stop-opacity="0.23137255"/></linearGradient></defs><path fill="url(#p.2)" d="m1681.0262 334.70602l0 0c48.488037 0 87.79529 39.30728 87.79529 87.79529l0 0c0 23.28476 -9.249878 45.615814 -25.7146 62.080627c-16.464844 16.464813 -38.7959 25.71466 -62.08069 25.71466l0 0c-48.488037 0 -87.79529 -39.30728 -87.79529 -87.79529l0 0c0 -48.488007 39.30725 -87.79529 87.79529 -87.79529z" fill-rule="evenodd"/><defs><linearGradient id="p.3" gradientUnits="userSpaceOnUse" gradientTransform="matrix(0.0 13.251083251954611 -13.251083251954611 0.0 0.0 0.0)" spreadMethod="pad" x1="3.3840644445747365" y1="-88.10139927282918" x2="3.384016473950934" y2="-74.8503160209614"><stop offset="0.0" stop-color="#ffffff"/><stop offset="1.0" stop-color="#ffffff" stop-opacity="0.23137255"/></linearGradient></defs><path fill="url(#p.3)" d="m1079.6431 44.842518l0 0c48.487915 0 87.79529 39.307285 87.79529 87.79529l0 0c0 23.284744 -9.249878 45.615814 -25.714722 62.080627c-16.464722 16.464813 -38.795776 25.714645 -62.080566 25.714645l0 0c-48.488037 0 -87.79529 -39.30728 -87.79529 -87.79527l0 0c0 -48.488 39.30725 -87.79529 87.79529 -87.79529z" fill-rule="evenodd"/><defs><linearGradient id="p.4" gradientUnits="userSpaceOnUse" gradientTransform="matrix(0.0 13.251083251954611 -13.251083251954611 0.0 0.0 0.0)" spreadMethod="pad" x1="22.92151534793809" y1="-68.55166788977232" x2="22.921467377314286" y2="-55.300584637904535"><stop offset="0.0" stop-color="#ffffff"/><stop offset="1.0" stop-color="#ffffff" stop-opacity="0.23137255"/></linearGradient></defs><path fill="url(#p.4)" d="m820.58795 303.7349l0 0c48.487976 0 87.79523 39.307312 87.79523 87.79529l0 0c0 23.28476 -9.249817 45.615814 -25.7146 62.080627c-16.464844 16.464813 -38.7959 25.71466 -62.080627 25.71466l0 0c-48.488037 0 -87.79529 -39.30728 -87.79529 -87.79529l0 0c0 -48.487976 39.30725 -87.79529 87.79529 -87.79529z" fill-rule="evenodd"/><defs><linearGradient id="p.5" gradientUnits="userSpaceOnUse" gradientTransform="matrix(0.0 13.251083251957455 -13.251083251957455 0.0 0.0 0.0)" spreadMethod="pad" x1="26.705289599305555" y1="-32.46825132192727" x2="26.705240081242277" y2="-19.217168070062336"><stop offset="0.0" stop-color="#ffffff"/><stop offset="1.0" stop-color="#ffffff" stop-opacity="0.23137255"/></linearGradient></defs><path fill="url(#p.5)" d="m342.44357 353.87402l0 0c48.487976 0 87.79526 39.30728 87.79526 87.79526l0 0c0 23.28476 -9.249817 45.615845 -25.71463 62.080658c-16.464813 16.464783 -38.795868 25.7146 -62.080627 25.7146l0 0c-48.488007 0 -87.79527 -39.30725 -87.79527 -87.79526l0 0c0 -48.487976 39.307266 -87.79526 87.79527 -87.79526z" fill-rule="evenodd"/><defs><linearGradient id="p.6" gradientUnits="userSpaceOnUse" gradientTransform="matrix(0.0 7.760195647234806 -7.760195647234806 0.0 0.0 0.0)" spreadMethod="pad" x1="20.646447554197465" y1="-196.55187488481837" x2="20.646418488210852" y2="-188.791679237638"><stop offset="0.0" stop-color="#ffffff"/><stop offset="1.0" stop-color="#ffffff" stop-opacity="0.23137255"/></linearGradient></defs><path fill="url(#p.6)" d="m1495.1707 160.22047l0 0c16.629395 0 30.11023 13.480804 30.11023 30.11023l0 0c0 7.985733 -3.1723633 15.644394 -8.819092 21.291153c-5.6468506 5.6467743 -13.30542 8.819092 -21.291138 8.819092l0 0c-16.629517 0 -30.11023 -13.48082 -30.11023 -30.110245l0 0c0 -16.629425 13.480713 -30.11023 30.11023 -30.11023z" fill-rule="evenodd"/><defs><linearGradient id="p.7" gradientUnits="userSpaceOnUse" gradientTransform="matrix(0.0 10.000016404216398 -10.000016404216398 0.0 0.0 0.0)" spreadMethod="pad" x1="34.16556075197507" y1="-117.9525952219211" x2="34.16552589310837" y2="-107.95257881776546"><stop offset="0.0" stop-color="#ffffff"/><stop offset="1.0" stop-color="#ffffff" stop-opacity="0.23137255"/></linearGradient></defs><path fill="url(#p.7)" d="m1129.5276 341.65616l0 0c27.614258 0 50.0 22.385773 50.0 50.0l0 0c0 13.260834 -5.2678223 25.978516 -14.644653 35.355347c-9.376831 9.376831 -22.094604 14.644653 -35.355347 14.644653l0 0c-27.614258 0 -50.0 -22.385742 -50.0 -50.0l0 0c0 -27.614227 22.385742 -50.0 50.0 -50.0z" fill-rule="evenodd"/><defs><linearGradient id="p.8" gradientUnits="userSpaceOnUse" gradientTransform="matrix(0.0 10.000016404218211 -10.000016404218211 0.0 0.0 0.0)" spreadMethod="pad" x1="6.022037365412986" y1="-80.06578073183698" x2="6.0220014812855" y2="-70.06576432768315"><stop offset="0.0" stop-color="#ffffff"/><stop offset="1.0" stop-color="#ffffff" stop-opacity="0.23137255"/></linearGradient></defs><path fill="url(#p.8)" d="m750.6588 60.220474l0 0c27.614197 0 50.0 22.385757 50.0 50.0l0 0c0 13.260826 -5.2678833 25.978516 -14.644653 35.35533c-9.376831 9.376831 -22.094543 14.644669 -35.355347 14.644669l0 0c-27.614258 0 -50.0 -22.385757 -50.0 -50.0l0 0c0 -27.614243 22.385742 -50.0 50.0 -50.0z" fill-rule="evenodd"/><defs><linearGradient id="p.9" gradientUnits="userSpaceOnUse" gradientTransform="matrix(0.0 10.000017942045776 -10.000017942045776 0.0 0.0 0.0)" spreadMethod="pad" x1="33.4705436215381" y1="-10.000017942108382" x2="33.470506712155505" y2="-1.3072127781415683E-10"><stop offset="0.0" stop-color="#ffffff"/><stop offset="1.0" stop-color="#ffffff" stop-opacity="0.23137255"/></linearGradient></defs><path fill="url(#p.9)" d="m50.0 334.70602l0 0c27.614235 0 50.0 22.385773 50.0 50.0l0 0c0 13.260834 -5.267845 25.978546 -14.644661 35.355347c-9.376816 9.376831 -22.094513 14.644653 -35.35534 14.644653l0 0c-27.614237 0 -50.0 -22.385742 -50.0 -50.0l0 0c0 -27.614227 22.385763 -50.0 50.0 -50.0z" fill-rule="evenodd"/><defs><linearGradient id="p.10" gradientUnits="userSpaceOnUse" gradientTransform="matrix(0.0 10.00001845473776 -10.00001845473776 0.0 0.0 0.0)" spreadMethod="pad" x1="23.517016967415966" y1="-54.6143718155959" x2="23.516982108556412" y2="-44.6143533609189"><stop offset="0.0" stop-color="#ffffff"/><stop offset="1.0" stop-color="#ffffff" stop-opacity="0.23137255"/></linearGradient></defs><path fill="url(#p.10)" d="m496.14435 235.17061l0 0c27.614258 0 50.0 22.385757 50.0 49.999985l0 0c0 13.260834 -5.2678223 25.978516 -14.644653 35.355347c-9.376831 9.376831 -22.094513 14.644653 -35.355347 14.644653l0 0c-27.614227 0 -50.0 -22.385742 -50.0 -50.0l0 0c0 -27.614227 22.385773 -49.999985 50.0 -49.999985z" fill-rule="evenodd"/><defs><linearGradient id="p.11" gradientUnits="userSpaceOnUse" gradientTransform="matrix(0.0 10.000018454741438 -10.000018454741438 0.0 0.0 0.0)" spreadMethod="pad" x1="9.756149974280104" y1="-27.682138053749924" x2="9.7561130648994" y2="-17.6821195990766"><stop offset="0.0" stop-color="#ffffff"/><stop offset="1.0" stop-color="#ffffff" stop-opacity="0.23137255"/></linearGradient></defs><path fill="url(#p.11)" d="m226.82152 97.561676l0 0c27.614243 0 50.000015 22.385765 50.000015 50.0l0 0c0 13.260834 -5.267853 25.97853 -14.644684 35.355347c-9.376801 9.376816 -22.094498 14.644653 -35.35533 14.644653l0 0c-27.614227 0 -50.0 -22.385757 -50.0 -50.0l0 0c0 -27.614235 22.385773 -50.0 50.0 -50.0z" fill-rule="evenodd"/><defs><linearGradient id="p.12" gradientUnits="userSpaceOnUse" gradientTransform="matrix(0.0 10.000016404220078 -10.000016404220078 0.0 0.0 0.0)" spreadMethod="pad" x1="43.4705323645227" y1="-150.68981186023439" x2="43.470495455134426" y2="-140.6897954560824"><stop offset="0.0" stop-color="#ffffff"/><stop offset="1.0" stop-color="#ffffff" stop-opacity="0.23137255"/></linearGradient></defs><path fill="url(#p.12)" d="m1456.9003 434.70602l0 0c27.614258 0 50.0 22.385773 50.0 50.0l0 0c0 13.260834 -5.2678223 25.978546 -14.644653 35.355377c-9.376831 9.37677 -22.094482 14.644653 -35.355347 14.644653l0 0c-27.614258 0 -50.0 -22.385803 -50.0 -50.00003l0 0c0 -27.614227 22.385742 -50.0 50.0 -50.0z" fill-rule="evenodd"/><defs><linearGradient id="p.13" gradientUnits="userSpaceOnUse" gradientTransform="matrix(0.0 7.760195647230084 -7.760195647230084 0.0 0.0 0.0)" spreadMethod="pad" x1="32.867775382069034" y1="-181.2970304442471" x2="32.86774895844484" y2="-173.536834797062"><stop offset="0.0" stop-color="#ffffff"/><stop offset="1.0" stop-color="#ffffff" stop-opacity="0.23137255"/></linearGradient></defs><path fill="url(#p.13)" d="m1376.79 255.06036l0 0c16.629395 0 30.11023 13.480804 30.11023 30.11023l0 0c0 7.9857483 -3.1723633 15.644409 -8.819092 21.291168c-5.6467285 5.646759 -13.30542 8.819092 -21.291138 8.819092l0 0c-16.629395 0 -30.11023 -13.480835 -30.11023 -30.11026l0 0c0 -16.629425 13.480835 -30.11023 30.11023 -30.11023z" fill-rule="evenodd"/><defs><linearGradient id="p.14" gradientUnits="userSpaceOnUse" gradientTransform="matrix(0.0 7.760200931956052 -7.760200931956052 0.0 0.0 0.0)" spreadMethod="pad" x1="1.293661757513595E-10" y1="-122.28797385642724" x2="-2.809172082416042E-5" y2="-114.52777292452204"><stop offset="0.0" stop-color="#ffffff"/><stop offset="1.0" stop-color="#ffffff" stop-opacity="0.23137255"/></linearGradient></defs><path fill="url(#p.14)" d="m918.8688 0l0 0c16.629395 0 30.11023 13.480812 30.11023 30.110237l0 0c0 7.985729 -3.1723022 15.644386 -8.819092 21.291153c-5.6467285 5.646763 -13.30542 8.819084 -21.291138 8.819084l0 0c-16.629456 0 -30.11023 -13.480812 -30.11023 -30.110237l0 0c0 -16.629425 13.480774 -30.110237 30.11023 -30.110237z" fill-rule="evenodd"/><defs><linearGradient id="p.15" gradientUnits="userSpaceOnUse" gradientTransform="matrix(0.0 7.760198289592053 -7.760198289592053 0.0 0.0 0.0)" spreadMethod="pad" x1="58.580436164193955" y1="-78.81579393722097" x2="58.58040974057876" y2="-71.05559564767391"><stop offset="0.0" stop-color="#ffffff"/><stop offset="1.0" stop-color="#ffffff" stop-opacity="0.23137255"/></linearGradient></defs><path fill="url(#p.15)" d="m581.51575 454.5958l0 0c16.629456 0 30.11023 13.480804 30.11023 30.11023l0 0c0 7.9857483 -3.1723022 15.644409 -8.819092 21.291168c-5.6467285 5.646759 -13.30542 8.819092 -21.291138 8.819092l0 0c-16.629395 0 -30.11023 -13.480835 -30.11023 -30.11026l0 0c0 -16.629425 13.480835 -30.11023 30.11023 -30.11023z" fill-rule="evenodd"/><defs><linearGradient id="p.16" gradientUnits="userSpaceOnUse" gradientTransform="matrix(0.0 7.760198289595553 -7.760198289595553 0.0 0.0 0.0)" spreadMethod="pad" x1="10.323220262023439" y1="-70.37765552203925" x2="10.323191856637104" y2="-62.61745723249568"><stop offset="0.0" stop-color="#ffffff"/><stop offset="1.0" stop-color="#ffffff" stop-opacity="0.23137255"/></linearGradient></defs><path fill="url(#p.16)" d="m516.0341 80.11024l0 0c16.629456 0 30.11023 13.480812 30.11023 30.110237l0 0c0 7.985733 -3.1723022 15.644386 -8.819092 21.291153c-5.6467285 5.646759 -13.30542 8.819077 -21.291138 8.819077l0 0c-16.629425 0 -30.11023 -13.480804 -30.11023 -30.11023l0 0c0 -16.629425 13.480804 -30.110237 30.11023 -30.110237z" fill-rule="evenodd"/><defs><linearGradient id="p.17" gradientUnits="userSpaceOnUse" gradientTransform="matrix(0.0 7.760195647230084 -7.760195647230084 0.0 0.0 0.0)" spreadMethod="pad" x1="40.62794989035478" y1="-243.4264540898643" x2="40.627923466730586" y2="-235.6662584426792"><stop offset="0.0" stop-color="#ffffff"/><stop offset="1.0" stop-color="#ffffff" stop-opacity="0.23137255"/></linearGradient></defs><path fill="url(#p.17)" d="m1858.9265 315.28085l0 0c16.629395 0 30.11023 13.480804 30.11023 30.11023l0 0c0 7.985718 -3.1723633 15.644379 -8.819092 21.291138c-5.6467285 5.646759 -13.30542 8.819092 -21.291138 8.819092l0 0c-16.629395 0 -30.11023 -13.480804 -30.11023 -30.11023l0 0c0 -16.629425 13.480835 -30.11023 30.11023 -30.11023z" fill-rule="evenodd"/></g></svg>