<svg version="1.1" viewBox="0.0 0.0 611.6351706036745 611.6220472440945" fill="none" stroke="none" stroke-linecap="square" stroke-miterlimit="10" xmlns:xlink="http://www.w3.org/1999/xlink" xmlns="http://www.w3.org/2000/svg"><clipPath id="p.0"><path d="m0 0l611.6352 0l0 611.6221l-611.6352 0l0 -611.6221z" clip-rule="nonzero"/></clipPath><g clip-path="url(#p.0)"><path fill="#000000" fill-opacity="0.0" d="m0 0l611.6352 0l0 611.6221l-611.6352 0z" fill-rule="evenodd"/><path fill="#000000" fill-opacity="0.0" d="m0 0l612.4724 0l0 612.4724l-612.4724 0z" fill-rule="evenodd"/><path stroke="#ffffff" stroke-width="1.0" stroke-linejoin="round" stroke-linecap="butt" d="m0 0l612.4724 0l0 612.4724l-612.4724 0z" fill-rule="evenodd"/><path fill="#1cb2e3" d="m25.627296 329.11285l0 0c0 -94.19281 76.35837 -170.55118 170.55118 -170.55118l0 0c45.232986 0 88.61333 17.968735 120.597885 49.953293c31.984558 31.984543 49.953278 75.364914 49.953278 120.597885l0 0c0 94.19281 -76.35834 170.55118 -170.55116 170.55118l0 0c-94.19282 0 -170.55118 -76.35837 -170.55118 -170.55118z" fill-rule="evenodd"/><path fill="#1ce3b1" d="m362.56168 224.95013l0 0c0 -61.934174 50.20758 -112.14174 112.14172 -112.14174l0 0c29.741852 0 58.265533 11.814903 79.29617 32.84555c21.0307 21.030655 32.84558 49.55435 32.84558 79.29619l0 0c0 61.934174 -50.20758 112.14172 -112.141754 112.14172l0 0c-61.934143 0 -112.14172 -50.20755 -112.14172 -112.14172z" fill-rule="evenodd"/><path fill="#1ce34d" d="m366.72964 408.97375l0 0c0 -35.233154 28.562134 -63.795288 63.795288 -63.795288l0 0c16.919556 0 33.14615 6.721283 45.110077 18.685211c11.963928 11.963928 18.685211 28.190521 18.685211 45.110077l0 0c0 35.233154 -28.562134 63.795288 -63.795288 63.795288l0 0c-35.233154 0 -63.795288 -28.562134 -63.795288 -63.795288z" fill-rule="evenodd"/></g></svg>