<svg version="1.1" viewBox="0.0 0.0 577.3018372703413 577.3018372703413" fill="none" stroke="none" stroke-linecap="square" stroke-miterlimit="10" xmlns:xlink="http://www.w3.org/1999/xlink" xmlns="http://www.w3.org/2000/svg"><clipPath id="p.0"><path d="m0 0l577.3018 0l0 577.3018l-577.3018 0l0 -577.3018z" clip-rule="nonzero"/></clipPath><g clip-path="url(#p.0)"><path fill="#000000" fill-opacity="0.0" d="m0 0l577.3018 0l0 577.3018l-577.3018 0z" fill-rule="evenodd"/><defs><linearGradient id="p.1" gradientUnits="userSpaceOnUse" gradientTransform="matrix(24.032918252717696 0.0 0.0 24.032918252717696 0.0 0.0)" spreadMethod="pad" x1="24.032653757489182" y1="24.032918254177837" x2="24.032918254177837" y2="2.91561045010333E-9"><stop offset="0.0" stop-color="#ff4081"/><stop offset="1.0" stop-color="#8e44ad"/></linearGradient></defs><path fill="url(#p.1)" d="m0 0l577.5748 0l0 577.5748l-577.5748 0z" fill-rule="evenodd"/><path fill="#ffcd94" d="m288.7874 351.13647l0 0l0 0c-23.706604 0 -46.442245 -9.417389 -63.205338 -26.180481c-16.763092 -16.763123 -26.180496 -39.49875 -26.180496 -63.205322l0 -74.946625c0 -43.355576 35.146637 -78.50221 78.5022 -78.50221l21.767242 0c43.35556 0 78.5022 35.146637 78.5022 78.50221l0 74.946625l0 0c0 49.366425 -40.01938 89.3858 -89.3858 89.3858z" fill-rule="evenodd"/><path fill="#434343" d="m100.419945 577.2677l0 -90.6929l0 0c0 -50.088318 84.332634 -90.6929 188.36221 -90.6929c104.02957 0 188.36218 40.604584 188.36218 90.6929l0 90.6929z" fill-rule="evenodd"/><path fill="#d9d9d9" d="m223.71654 385.40427l134.26772 0l0 192.91342l-134.26772 0z" fill-rule="evenodd"/><path fill="#f3f3f3" d="m237.09186 392.2152l0 0c0 -17.41217 23.140198 -31.527557 51.68506 -31.527557c28.54483 0 51.685028 14.115387 51.685028 31.527557l0 0c-33.8461 -5.5959167 -69.52399 -5.5959167 -103.37009 0z" fill-rule="evenodd"/><path fill="#666666" d="m193.49474 394.4147l33.42006 0l33.059235 -21.934387l0 -17.20996z" fill-rule="evenodd"/><path fill="#666666" d="m383.49857 394.4147l-30.07843 0l-29.753693 -21.934387l0 -17.20996z" fill-rule="evenodd"/><path fill="#ffcd94" d="m242.62993 294.68503l92.31496 0l0 114.48819l-92.31496 0z" fill-rule="evenodd"/><path fill="#f3f3f3" d="m339.73227 386.90027l0 0c0 30.997528 -22.808777 56.125977 -50.944855 56.125977c-28.136108 0 -50.9449 -25.128448 -50.9449 -56.125977l0 0c29.293808 27.747925 72.59596 27.747925 101.889755 0z" fill-rule="evenodd"/><path fill="#666666" d="m220.4884 578.32806l32.773758 0l-26.347351 -183.91336l-34.0618 0z" fill-rule="evenodd"/><path fill="#434343" fill-opacity="0.4022" d="m290.2538 351.13647l-2.9354553 0l0 0c-23.317322 0 -45.679626 -9.262756 -62.16748 -25.75061c-16.487839 -16.487854 -25.75061 -38.85016 -25.75061 -62.16748l0 -76.41434c0 -43.355576 35.146637 -78.50221 78.5022 -78.50221l21.767242 0c43.35556 0 78.5022 35.146637 78.5022 78.50221l0 76.41434l0 0c0 48.555817 -39.362274 87.91809 -87.91809 87.91809z" fill-rule="evenodd"/><path fill="#666666" d="m359.20395 578.32806l-29.496765 0l23.712921 -183.91336l30.656006 0z" fill-rule="evenodd"/><path fill="#ffcd94" d="m288.7874 307.6404l0 0l0 0c-14.6892395 0 -28.776855 -5.835266 -39.16371 -16.222137c-10.386856 -10.386841 -16.222122 -24.474457 -16.222122 -39.16368l0 -51.81465c0 -26.864258 21.777786 -48.642044 48.64203 -48.642044l13.487579 0c26.864258 0 48.64203 21.777786 48.64203 48.642044l0 51.81465l0 0c0 30.58876 -24.797058 55.38582 -55.385803 55.38582z" fill-rule="evenodd"/><path fill="#ffcd94" d="m212.98683 214.5543l0 0c0 -29.805984 13.861542 -53.968506 30.960617 -53.968506l0 0c8.211273 0 16.086243 5.6859436 21.892487 15.807007c5.806244 10.121063 9.068146 23.84816 9.068146 38.1615l0 0c0 29.80597 -13.861542 53.96849 -30.960632 53.96849l0 0c-17.099075 0 -30.960617 -24.162521 -30.960617 -53.96849z" fill-rule="evenodd"/><path fill="#ffffff" fill-opacity="0.5084" d="m221.64568 229.32812l0 0c0 -15.342209 12.437317 -27.779526 27.779526 -27.779526l0 0c7.367584 0 14.433411 2.9267578 19.643097 8.136429c5.209656 5.209671 8.136414 12.275513 8.136414 19.643097l0 0c0 15.342209 -12.437317 27.77951 -27.77951 27.77951l0 0c-15.342209 0 -27.779526 -12.437302 -27.779526 -27.77951z" fill-rule="evenodd"/><path stroke="#434343" stroke-width="8.0" stroke-linejoin="round" stroke-linecap="butt" d="m221.64568 229.32812l0 0c0 -15.342209 12.437317 -27.779526 27.779526 -27.779526l0 0c7.367584 0 14.433411 2.9267578 19.643097 8.136429c5.209656 5.209671 8.136414 12.275513 8.136414 19.643097l0 0c0 15.342209 -12.437317 27.77951 -27.77951 27.77951l0 0c-15.342209 0 -27.779526 -12.437302 -27.779526 -27.77951z" fill-rule="evenodd"/><path fill="#ffcd94" d="m301.76047 210.9685l0 0c0 -29.805984 13.861542 -53.968506 30.960632 -53.968506l0 0c8.211273 0 16.086243 5.6859436 21.892487 15.807007c5.806244 10.121063 9.068146 23.84816 9.068146 38.1615l0 0c0 29.805984 -13.861542 53.968506 -30.960632 53.968506l0 0c-17.09909 0 -30.960632 -24.162521 -30.960632 -53.968506z" fill-rule="evenodd"/><path fill="#ffffff" fill-opacity="0.5084" d="m300.34387 229.32812l0 0c0 -15.342209 12.437317 -27.779526 27.779541 -27.779526l0 0c7.367584 0 14.433411 2.9267578 19.643066 8.136429c5.2096863 5.209671 8.136444 12.275513 8.136444 19.643097l0 0c0 15.342209 -12.437317 27.77951 -27.77951 27.77951l0 0c-15.342224 0 -27.779541 -12.437302 -27.779541 -27.77951z" fill-rule="evenodd"/><path stroke="#434343" stroke-width="8.0" stroke-linejoin="round" stroke-linecap="butt" d="m300.34387 229.32812l0 0c0 -15.342209 12.437317 -27.779526 27.779541 -27.779526l0 0c7.367584 0 14.433411 2.9267578 19.643066 8.136429c5.2096863 5.209671 8.136444 12.275513 8.136444 19.643097l0 0c0 15.342209 -12.437317 27.77951 -27.77951 27.77951l0 0c-15.342224 0 -27.779541 -12.437302 -27.779541 -27.77951z" fill-rule="evenodd"/><path fill="#434343" d="m213.41995 131.10498l0 0c0 -18.151459 14.714661 -32.866135 32.866135 -32.866135l84.976395 0l0 0c8.716614 0 17.076263 3.4626694 23.239868 9.6262665c6.163574 6.163597 9.626251 14.5232315 9.626251 23.239868l0 0l0 0c0 18.151474 -14.714661 32.86615 -32.86612 32.86615l-84.976395 0c-18.151474 0 -32.866135 -14.714676 -32.866135 -32.86615z" fill-rule="evenodd"/><path fill="#666666" d="m275.34384 163.97113l20.099335 -65.732285l34.262848 0l-20.099335 65.732285z" fill-rule="evenodd"/><path fill="#000000" fill-opacity="0.0" d="m276.3491 232.92389l0 0c0 -5.5750427 5.3725586 -10.094498 12.0 -10.094498c6.627411 0 12.0 4.519455 12.0 10.094498l-5.047241 0c0 -2.7875214 -3.112854 -5.047241 -6.952759 -5.047241c-3.8399048 0 -6.952759 2.2597198 -6.952759 5.047241z" fill-rule="evenodd"/><path stroke="#434343" stroke-width="8.0" stroke-linejoin="round" stroke-linecap="butt" d="m276.3491 232.92389l0 0c0 -5.5750427 5.3725586 -10.094498 12.0 -10.094498c6.627411 0 12.0 4.519455 12.0 10.094498l-5.047241 0c0 -2.7875214 -3.112854 -5.047241 -6.952759 -5.047241c-3.8399048 0 -6.952759 2.2597198 -6.952759 5.047241z" fill-rule="evenodd"/><path fill="#ffffff" fill-opacity="0.5084" d="m232.01837 253.45145l18.42479 -48.220474l16.378372 0l-18.424805 48.220474z" fill-rule="evenodd"/><path fill="#ffffff" fill-opacity="0.5084" d="m312.73752 253.43832l18.424805 -48.220474l16.378357 0l-18.424774 48.220474z" fill-rule="evenodd"/><path fill="#ffffff" fill-opacity="0.1173" d="m221.6588 229.32812l0 0c0 -15.342209 12.437317 -27.779526 27.779526 -27.779526l0 0c7.367584 0 14.433411 2.9267578 19.643097 8.136429c5.209656 5.209671 8.136414 12.275513 8.136414 19.643097l0 0c0 15.342209 -12.437317 27.77951 -27.77951 27.77951l0 0c-15.342209 0 -27.779526 -12.437302 -27.779526 -27.77951z" fill-rule="evenodd"/><path stroke="#434343" stroke-width="8.0" stroke-linejoin="round" stroke-linecap="butt" d="m221.6588 229.32812l0 0c0 -15.342209 12.437317 -27.779526 27.779526 -27.779526l0 0c7.367584 0 14.433411 2.9267578 19.643097 8.136429c5.209656 5.209671 8.136414 12.275513 8.136414 19.643097l0 0c0 15.342209 -12.437317 27.77951 -27.77951 27.77951l0 0c-15.342209 0 -27.779526 -12.437302 -27.779526 -27.77951z" fill-rule="evenodd"/><path fill="#ffffff" fill-opacity="0.1173" d="m300.357 229.32812l0 0c0 -15.342209 12.437317 -27.779526 27.779541 -27.779526l0 0c7.367584 0 14.433411 2.9267578 19.643066 8.136429c5.2096863 5.209671 8.136444 12.275513 8.136444 19.643097l0 0c0 15.342209 -12.437317 27.77951 -27.77951 27.77951l0 0c-15.342224 0 -27.779541 -12.437302 -27.779541 -27.77951z" fill-rule="evenodd"/><path stroke="#434343" stroke-width="8.0" stroke-linejoin="round" stroke-linecap="butt" d="m300.357 229.32812l0 0c0 -15.342209 12.437317 -27.779526 27.779541 -27.779526l0 0c7.367584 0 14.433411 2.9267578 19.643066 8.136429c5.2096863 5.209671 8.136444 12.275513 8.136444 19.643097l0 0c0 15.342209 -12.437317 27.77951 -27.77951 27.77951l0 0c-15.342224 0 -27.779541 -12.437302 -27.779541 -27.77951z" fill-rule="evenodd"/><path fill="#434343" fill-opacity="0.4022" d="m264.7874 298.48032l0 0c0 -13.254822 10.745148 -24.0 24.0 -24.0c13.254822 0 24.0 10.745178 24.0 24.0l0 0c-15.135925 -7.436493 -32.864105 -7.436493 -48.0 0z" fill-rule="evenodd"/><path fill="#000000" fill-opacity="0.0" d="m355.91605 229.32812l22.26773 0.37794495" fill-rule="evenodd"/><path stroke="#434343" stroke-width="8.0" stroke-linejoin="round" stroke-linecap="butt" d="m355.91605 229.32812l22.26773 0.37794495" fill-rule="evenodd"/><path fill="#000000" fill-opacity="0.0" d="m221.6588 229.32812l-22.267715 0.37794495" fill-rule="evenodd"/><path stroke="#434343" stroke-width="8.0" stroke-linejoin="round" stroke-linecap="butt" d="m221.6588 229.32812l-22.267715 0.37794495" fill-rule="evenodd"/></g></svg>